<?xml version="1.0" encoding="UTF-8" standalone="no"?>
<svg width="177" height="27" viewBox="0 0 177 27" fill="none" xmlns="http://www.w3.org/2000/svg">
<path d="M9.737 20.39C11.8863 20.39 13.6803 19.8527 15.119 18.778C16.5663 17.6947 17.5803 16.2387 18.161 14.41L15.002 13.539C14.638 14.7523 14.0183 15.7057 13.143 16.399C12.2677 17.0923 11.1323 17.439 9.737 17.439C7.85633 17.439 6.43933 16.8193 5.486 15.58C4.54133 14.332 4.069 12.6853 4.069 10.64C4.07767 8.59467 4.55433 6.95233 5.499 5.713C6.44367 4.465 7.85633 3.841 9.737 3.841C11.1323 3.841 12.2677 4.18767 13.143 4.881C14.0183 5.57433 14.638 6.52767 15.002 7.741L18.161 6.87C17.5803 5.03267 16.5663 3.57667 15.119 2.502C13.6803 1.42733 11.8863 0.89 9.737 0.89C7.87367 0.89 6.27033 1.30167 4.927 2.125C3.59233 2.93967 2.56533 4.07933 1.846 5.544C1.13533 7 0.78 8.69867 0.78 10.64C0.78 12.5727 1.13533 14.2713 1.846 15.736C2.56533 17.2007 3.59233 18.3447 4.927 19.168C6.27033 19.9827 7.87367 20.39 9.737 20.39ZM24.9413 20.39C26.0593 20.39 27.0083 20.208 27.7883 19.844C28.577 19.4713 29.2703 18.895 29.8683 18.115V20H32.6113V11.381C32.6113 10.7743 32.5853 10.2153 32.5333 9.704C32.4813 9.184 32.3296 8.677 32.0783 8.183C31.619 7.25567 30.9126 6.58833 29.9593 6.181C29.0146 5.77367 27.9183 5.57 26.6703 5.57C25.0236 5.57 23.7106 5.92967 22.7313 6.649C21.752 7.36833 21.089 8.32167 20.7423 9.509L23.6023 10.406C23.8363 9.68667 24.248 9.17967 24.8373 8.885C25.4266 8.59033 26.0376 8.443 26.6703 8.443C27.6236 8.443 28.3256 8.638 28.7763 9.028C29.227 9.40933 29.4826 10.003 29.5433 10.809C28.3126 10.991 27.1686 11.1687 26.1113 11.342C25.0626 11.5067 24.17 11.7103 23.4333 11.953C22.324 12.3343 21.5136 12.876 21.0023 13.578C20.491 14.2713 20.2353 15.1293 20.2353 16.152C20.2353 16.9233 20.413 17.6297 20.7683 18.271C21.1323 18.9123 21.6653 19.428 22.3673 19.818C23.0693 20.1993 23.9273 20.39 24.9413 20.39ZM25.5653 17.894C24.8286 17.894 24.2653 17.725 23.8753 17.387C23.494 17.049 23.3033 16.6243 23.3033 16.113C23.3033 15.6537 23.4506 15.281 23.7453 14.995C24.0486 14.709 24.469 14.4663 25.0063 14.267C25.5003 14.1023 26.094 13.9593 26.7873 13.838C27.4806 13.708 28.3863 13.5563 29.5043 13.383C29.4956 13.7123 29.474 14.0807 29.4393 14.488C29.4046 14.8867 29.3223 15.2463 29.1923 15.567C29.0883 15.8877 28.8846 16.23 28.5813 16.594C28.2866 16.958 27.888 17.2657 27.3853 17.517C26.8826 17.7683 26.276 17.894 25.5653 17.894ZM41.4168 20.39C43.2281 20.39 44.6451 19.987 45.6678 19.181C46.6991 18.375 47.2148 17.2657 47.2148 15.853C47.2148 14.761 46.8681 13.903 46.1748 13.279C45.4901 12.655 44.3071 12.1263 42.6258 11.693C41.5338 11.4157 40.7104 11.1817 40.1558 10.991C39.6098 10.8003 39.2458 10.6097 39.0638 10.419C38.8818 10.2283 38.7908 9.99867 38.7908 9.73C38.7908 9.262 39.0161 8.898 39.4668 8.638C39.9174 8.36933 40.5111 8.25233 41.2478 8.287C42.0104 8.33033 42.6214 8.52533 43.0808 8.872C43.5488 9.21867 43.8261 9.691 43.9128 10.289L47.1108 9.717C46.9374 8.45167 46.3178 7.44633 45.2518 6.701C44.1858 5.947 42.8338 5.57 41.1958 5.57C39.5231 5.57 38.1841 5.96 37.1788 6.74C36.1734 7.52 35.6708 8.56867 35.6708 9.886C35.6708 10.9347 36.0218 11.7623 36.7238 12.369C37.4344 12.9757 38.6694 13.5087 40.4288 13.968C41.4861 14.2453 42.2661 14.4793 42.7688 14.67C43.2801 14.852 43.6138 15.0383 43.7698 15.229C43.9258 15.4197 44.0038 15.6753 44.0038 15.996C44.0038 16.516 43.7958 16.9277 43.3798 17.231C42.9638 17.5257 42.3831 17.673 41.6378 17.673C40.7798 17.673 40.0648 17.4737 39.4928 17.075C38.9294 16.6763 38.5698 16.1303 38.4138 15.437L35.2158 15.931C35.4498 17.3437 36.1084 18.44 37.1918 19.22C38.2751 20 39.6834 20.39 41.4168 20.39ZM50.3222 3.828H53.4552V0.955H50.3222V3.828ZM50.3222 20H53.4552V5.96H50.3222V20ZM57.3233 20H60.4953V12.785C60.4953 11.6497 60.6556 10.7743 60.9763 10.159C61.3056 9.535 61.7216 9.106 62.2243 8.872C62.7356 8.62933 63.2556 8.508 63.7843 8.508C64.5296 8.508 65.1233 8.67267 65.5653 9.002C66.0073 9.32267 66.3323 9.73433 66.5403 10.237C66.757 10.731 66.8956 11.2467 66.9563 11.784C67.0256 12.3213 67.0603 12.8067 67.0603 13.24V20H70.2323V12.161C70.2323 11.8317 70.202 11.394 70.1413 10.848C70.0893 10.302 69.968 9.72567 69.7773 9.119C69.5866 8.51233 69.292 7.94033 68.8933 7.403C68.4946 6.857 67.953 6.415 67.2683 6.077C66.5923 5.73033 65.7386 5.557 64.7073 5.557C63.6933 5.557 62.8006 5.73467 62.0293 6.09C61.2666 6.43667 60.6296 6.91333 60.1183 7.52V5.96H57.3233V20ZM79.5972 20.39C81.0012 20.39 82.2275 20.078 83.2762 19.454C84.3248 18.8213 85.1395 17.9503 85.7202 16.841C86.3095 15.723 86.6042 14.436 86.6042 12.98C86.6042 11.5327 86.3138 10.2543 85.7332 9.145C85.1525 8.027 84.3378 7.15167 83.2892 6.519C82.2405 5.88633 81.0098 5.57 79.5972 5.57C78.2192 5.57 77.0058 5.882 75.9572 6.506C74.9085 7.13 74.0895 7.99667 73.5002 9.106C72.9108 10.2153 72.6162 11.5067 72.6162 12.98C72.6162 14.4273 72.9022 15.71 73.4742 16.828C74.0548 17.9373 74.8695 18.8083 75.9182 19.441C76.9668 20.0737 78.1932 20.39 79.5972 20.39ZM79.5972 17.452C78.3925 17.452 77.4782 17.049 76.8542 16.243C76.2388 15.4283 75.9312 14.3407 75.9312 12.98C75.9312 11.654 76.2258 10.5793 76.8152 9.756C77.4132 8.924 78.3405 8.508 79.5972 8.508C80.8278 8.508 81.7508 8.91533 82.3662 9.73C82.9815 10.536 83.2892 11.6193 83.2892 12.98C83.2892 14.2973 82.9815 15.372 82.3662 16.204C81.7595 17.036 80.8365 17.452 79.5972 17.452ZM89.4806 20H92.6916V16.789H89.4806V20Z" fill="white"/>
<path d="M96.8571 20H99.9901V13.461H104.436L107.608 20H111.157L107.699 12.902C108.765 12.4253 109.558 11.7017 110.078 10.731C110.598 9.76033 110.858 8.64233 110.858 7.377C110.858 5.82567 110.468 4.504 109.688 3.412C108.917 2.31133 107.716 1.63533 106.087 1.384C105.844 1.34067 105.58 1.31467 105.294 1.306C105.008 1.28867 104.774 1.28 104.592 1.28H96.8571V20ZM99.9901 10.536V4.218H104.462C104.635 4.218 104.83 4.22667 105.047 4.244C105.264 4.26133 105.463 4.29167 105.645 4.335C106.165 4.465 106.572 4.699 106.867 5.037C107.17 5.36633 107.383 5.739 107.504 6.155C107.634 6.571 107.699 6.97833 107.699 7.377C107.699 7.77567 107.634 8.183 107.504 8.599C107.383 9.015 107.17 9.38767 106.867 9.717C106.572 10.0463 106.165 10.276 105.645 10.406C105.463 10.458 105.264 10.4927 105.047 10.51C104.83 10.5273 104.635 10.536 104.462 10.536H99.9901ZM117.947 20.39C119.065 20.39 120.014 20.208 120.794 19.844C121.583 19.4713 122.276 18.895 122.874 18.115V20H125.617V11.381C125.617 10.7743 125.591 10.2153 125.539 9.704C125.487 9.184 125.336 8.677 125.084 8.183C124.625 7.25567 123.919 6.58833 122.965 6.181C122.021 5.77367 120.924 5.57 119.676 5.57C118.03 5.57 116.717 5.92967 115.737 6.649C114.758 7.36833 114.095 8.32167 113.748 9.509L116.608 10.406C116.842 9.68667 117.254 9.17967 117.843 8.885C118.433 8.59033 119.044 8.443 119.676 8.443C120.63 8.443 121.332 8.638 121.782 9.028C122.233 9.40933 122.489 10.003 122.549 10.809C121.319 10.991 120.175 11.1687 119.117 11.342C118.069 11.5067 117.176 11.7103 116.439 11.953C115.33 12.3343 114.52 12.876 114.008 13.578C113.497 14.2713 113.241 15.1293 113.241 16.152C113.241 16.9233 113.419 17.6297 113.774 18.271C114.138 18.9123 114.671 19.428 115.373 19.818C116.075 20.1993 116.933 20.39 117.947 20.39ZM118.571 17.894C117.835 17.894 117.271 17.725 116.881 17.387C116.5 17.049 116.309 16.6243 116.309 16.113C116.309 15.6537 116.457 15.281 116.751 14.995C117.055 14.709 117.475 14.4663 118.012 14.267C118.506 14.1023 119.1 13.9593 119.793 13.838C120.487 13.708 121.392 13.5563 122.51 13.383C122.502 13.7123 122.48 14.0807 122.445 14.488C122.411 14.8867 122.328 15.2463 122.198 15.567C122.094 15.8877 121.891 16.23 121.587 16.594C121.293 16.958 120.894 17.2657 120.391 17.517C119.889 17.7683 119.282 17.894 118.571 17.894ZM137.231 20V17.374C136.355 17.504 135.575 17.5387 134.891 17.478C134.206 17.4173 133.708 17.127 133.396 16.607C133.231 16.3383 133.14 15.9917 133.123 15.567C133.114 15.1337 133.11 14.6397 133.11 14.085V8.417H137.231V5.96H133.11V2.06H129.99V5.96H127.442V8.417H129.99V14.267C129.99 15.073 129.998 15.7923 130.016 16.425C130.033 17.049 130.202 17.6643 130.523 18.271C130.887 18.9383 131.42 19.428 132.122 19.74C132.824 20.0433 133.617 20.2037 134.501 20.221C135.393 20.247 136.303 20.1733 137.231 20ZM140.51 3.828H143.643V0.955H140.51V3.828ZM140.51 20H143.643V5.96H140.51V20ZM147.511 20H150.683V12.785C150.683 11.6497 150.843 10.7743 151.164 10.159C151.493 9.535 151.909 9.106 152.412 8.872C152.923 8.62933 153.443 8.508 153.972 8.508C154.717 8.508 155.311 8.67267 155.753 9.002C156.195 9.32267 156.52 9.73433 156.728 10.237C156.944 10.731 157.083 11.2467 157.144 11.784C157.213 12.3213 157.248 12.8067 157.248 13.24V20H160.42V12.161C160.42 11.8317 160.389 11.394 160.329 10.848C160.277 10.302 160.155 9.72567 159.965 9.119C159.774 8.51233 159.479 7.94033 159.081 7.403C158.682 6.857 158.14 6.415 157.456 6.077C156.78 5.73033 155.926 5.557 154.895 5.557C153.881 5.557 152.988 5.73467 152.217 6.09C151.454 6.43667 150.817 6.91333 150.306 7.52V5.96H147.511V20ZM169.441 20.39C170.169 20.39 170.832 20.2903 171.43 20.091C172.037 19.9003 172.579 19.6317 173.055 19.285V20.624C173.073 21.6207 172.765 22.3747 172.132 22.886C171.508 23.3973 170.707 23.653 169.727 23.653C169.173 23.653 168.648 23.5273 168.154 23.276C167.66 23.0247 167.283 22.6477 167.023 22.145L164.137 23.575C164.683 24.5283 165.455 25.2737 166.451 25.811C167.457 26.357 168.544 26.63 169.714 26.63C171.3 26.63 172.661 26.305 173.796 25.655C174.94 25.0137 175.673 24.0127 175.993 22.652C176.063 22.34 176.11 22.0237 176.136 21.703C176.171 21.3823 176.188 21.04 176.188 20.676V5.96H173.445V6.974C172.951 6.52333 172.379 6.17667 171.729 5.934C171.079 5.69133 170.356 5.57 169.558 5.57C168.232 5.57 167.08 5.89067 166.1 6.532C165.13 7.17333 164.376 8.053 163.838 9.171C163.301 10.289 163.032 11.5587 163.032 12.98C163.032 14.384 163.297 15.645 163.825 16.763C164.354 17.881 165.099 18.765 166.061 19.415C167.023 20.065 168.15 20.39 169.441 20.39ZM169.922 17.582C169.108 17.582 168.436 17.3783 167.907 16.971C167.379 16.555 166.984 16.0003 166.724 15.307C166.473 14.6137 166.347 13.838 166.347 12.98C166.347 12.1307 166.477 11.3593 166.737 10.666C167.006 9.964 167.409 9.40933 167.946 9.002C168.492 8.586 169.186 8.378 170.026 8.378C171.222 8.378 172.089 8.80267 172.626 9.652C173.172 10.5013 173.445 11.6107 173.445 12.98C173.445 14.3407 173.172 15.45 172.626 16.308C172.089 17.1573 171.188 17.582 169.922 17.582Z" fill="#EA1C4B"/>
</svg>
