<?xml version="1.0" encoding="UTF-8" standalone="no"?>
<svg width="28" height="32" viewBox="0 0 28 32" fill="none" xmlns="http://www.w3.org/2000/svg">
<path d="M12.0337 24.6463C10.6087 29.3322 8.53246 31.7402 8.44496 31.8402C8.35496 31.9427 8.22621 32.0002 8.09184 32.0002C8.06871 32.0002 8.04559 31.9983 8.02246 31.9952C7.86434 31.9714 7.72934 31.8683 7.66371 31.7226C7.00934 30.2567 6.09996 29.2465 5.70246 28.8471C3.56184 29.6529 1.65434 29.7729 1.57059 29.7779C1.40246 29.7873 1.24184 29.7067 1.14996 29.5654C1.05809 29.4241 1.04934 29.2447 1.12621 29.0947C2.97371 25.5115 4.07809 22.2727 4.57121 20.6606C4.61309 20.5249 4.71434 20.4155 4.84621 20.3624C4.97809 20.3099 5.12684 20.3199 5.25059 20.3899L11.8162 24.1012C12.0068 24.2094 12.0975 24.4362 12.0337 24.6463Z" fill="#EA1C4B"/>
<path d="M8.09227 31.9999C8.06914 31.9999 8.04602 31.998 8.02289 31.9949C7.86477 31.9711 7.72977 31.868 7.66414 31.7223C7.00977 30.2564 6.10039 29.2462 5.70289 28.8467C3.56227 29.6525 1.65477 29.7725 1.57102 29.7775C1.40289 29.7869 1.24227 29.7063 1.15039 29.565C1.15039 29.565 4.15477 28.5498 6.57539 26.6182C6.57539 26.6182 7.81977 29.495 8.09227 31.9999Z" fill="#FF5B8F"/>
<path d="M15.9656 24.6464C17.3906 29.3322 19.4668 31.7402 19.5543 31.8402C19.6443 31.9427 19.7731 32.0002 19.9074 32.0002C19.9306 32.0002 19.9537 31.9984 19.9768 31.9952C20.1349 31.9715 20.2699 31.8684 20.3356 31.7227C20.9899 30.2568 21.8993 29.2466 22.2968 28.8471C24.4375 29.6529 26.345 29.7729 26.4287 29.7779C26.5968 29.7873 26.7575 29.7067 26.8493 29.5654C26.9412 29.4241 26.95 29.2447 26.8731 29.0947C25.0256 25.5115 23.9212 22.2727 23.4281 20.6606C23.3862 20.5249 23.285 20.4155 23.1531 20.3624C23.0212 20.3099 22.8725 20.3199 22.7487 20.3899L16.1831 24.1012C15.9924 24.2094 15.9018 24.4363 15.9656 24.6464Z" fill="#EA1C4B"/>
<path d="M19.9082 31.9999C19.9313 31.9999 19.9545 31.998 19.9776 31.9949C20.1357 31.9711 20.2707 31.868 20.3363 31.7223C20.9907 30.2564 21.9001 29.2462 22.2976 28.8467C24.4382 29.6525 26.3457 29.7725 26.4295 29.7775C26.5976 29.7869 26.7582 29.7063 26.8501 29.565C26.8501 29.565 23.8457 28.5498 21.4251 26.6182C21.4251 26.6182 20.1807 29.495 19.9082 31.9999Z" fill="#FF5B8F"/>
<path d="M25.3988 16.3687C25.3032 16.7263 25.4263 17.2564 25.5451 17.7684C25.7226 18.531 25.9063 19.3199 25.5288 19.9719C25.1457 20.6339 24.3638 20.8703 23.6082 21.0984C23.1107 21.2484 22.5963 21.4034 22.342 21.6572C22.0882 21.9111 21.9332 22.4255 21.7832 22.9231C21.5551 23.6795 21.3195 24.4616 20.657 24.8447C20.2263 25.0936 19.737 25.0986 19.2345 25.0217C18.9757 24.9823 18.7138 24.9217 18.4545 24.8611C17.942 24.7417 17.4126 24.6185 17.0545 24.7142C16.7213 24.8036 16.3376 25.1642 15.9663 25.5137C15.4113 26.0357 14.7826 26.627 14.0001 26.627C13.2176 26.627 12.5888 26.0356 12.0338 25.5137C11.6626 25.1649 11.2788 24.8036 10.9457 24.7142C10.5876 24.6186 10.0582 24.7417 9.5457 24.8611C8.7832 25.0386 7.99508 25.2218 7.3432 24.8448C6.6807 24.4616 6.44508 23.6796 6.21695 22.9232C6.06695 22.4256 5.91195 21.9111 5.65758 21.6573C5.40383 21.4035 4.88945 21.2485 4.39195 21.0978C3.63633 20.8703 2.85445 20.634 2.47133 19.972C2.09383 19.32 2.27758 18.5311 2.45508 17.7684C2.57383 17.2564 2.69695 16.7264 2.60133 16.3688C2.51258 16.0356 2.15133 15.6512 1.80195 15.2799C1.2807 14.7254 0.689453 14.0965 0.689453 13.3139C0.689453 12.5306 1.2807 11.9017 1.80195 11.3472C2.15133 10.9759 2.51258 10.5921 2.60133 10.2583C2.69695 9.90075 2.57383 9.37062 2.45508 8.85869C2.27758 8.09606 2.09383 7.30713 2.47133 6.65513C2.85445 5.99312 3.63633 5.75744 4.39195 5.52931C4.88945 5.37931 5.40383 5.22362 5.65758 4.96981C5.91195 4.716 6.06695 4.20156 6.21695 3.70394C6.44508 2.94756 6.6807 2.1655 7.3432 1.78294C7.99508 1.40538 8.7832 1.5885 9.5457 1.76606C10.0582 1.88544 10.5876 2.00863 10.9457 1.91294C11.2788 1.82356 11.6626 1.46288 12.0338 1.11344C12.5888 0.591375 13.2176 0 14.0001 0C14.7826 0 15.4113 0.591375 15.9663 1.11331C16.3376 1.46275 16.7213 1.82344 17.0545 1.91281C17.4126 2.00844 17.942 1.88531 18.4545 1.76594C18.7138 1.70594 18.9757 1.64531 19.2345 1.60594C19.737 1.52906 20.2263 1.53344 20.657 1.78287C21.3195 2.16544 21.5551 2.9475 21.7832 3.70388C21.9332 4.2015 22.0882 4.71594 22.3426 4.96975C22.5963 5.22356 23.1107 5.37919 23.6082 5.52925C24.3638 5.75744 25.1457 5.99306 25.5288 6.65506C25.9063 7.30706 25.7226 8.09594 25.5451 8.85863C25.4263 9.37063 25.3032 9.90069 25.3988 10.2583C25.4876 10.5921 25.8488 10.9759 26.1982 11.3472C26.7195 11.9017 27.3107 12.5306 27.3107 13.3138C27.3107 14.0964 26.7195 14.7253 26.1982 15.2798C25.8488 15.6511 25.4876 16.0356 25.3988 16.3687Z" fill="#FFF18D"/>
<path d="M26.1981 11.3466C26.7194 11.9011 27.3106 12.53 27.3106 13.3132C27.3106 14.0959 26.7194 14.7247 26.1981 15.2792C25.8488 15.6505 25.4875 16.035 25.3988 16.3682C25.3031 16.7257 25.4262 17.2559 25.545 17.7678C25.7225 18.5304 25.9062 19.3194 25.5287 19.9714C25.1456 20.6334 24.3638 20.8697 23.6081 21.0978C23.1106 21.2478 22.5963 21.4029 22.3419 21.6567C22.0881 21.9105 21.9331 22.4249 21.7831 22.9225C21.555 23.6789 21.3194 24.461 20.6569 24.8442C20.2263 25.093 19.7369 25.098 19.2344 25.0211C19.37 24.9867 19.5006 24.9299 19.6262 24.8442C20.1862 24.461 20.3856 23.6789 20.5781 22.9225C20.705 22.4249 20.8362 21.9105 21.0506 21.6567C21.265 21.4029 21.7 21.2479 22.1206 21.0978C22.7594 20.8696 23.42 20.6334 23.7437 19.9714C24.0625 19.3194 23.9075 18.5305 23.7575 17.7678C23.6569 17.2558 23.5531 16.7257 23.6338 16.3682C23.7094 16.035 24.0144 15.6505 24.3094 15.2792C24.75 14.7247 25.25 14.0959 25.25 13.3132C25.25 12.53 24.75 11.9011 24.3094 11.3466C24.0144 10.9753 23.7094 10.5915 23.6338 10.2577C23.5531 9.90011 23.6569 9.36999 23.7575 8.85805C23.9075 8.09542 24.0625 7.30649 23.7437 6.65449C23.42 5.99249 22.7594 5.7568 22.1206 5.52867C21.7 5.37867 21.2656 5.22298 21.0506 4.96917C20.8362 4.71536 20.705 4.20092 20.5781 3.7033C20.3856 2.94692 20.1862 2.16486 19.6262 1.7823C19.5012 1.69667 19.37 1.6398 19.2344 1.60536C19.7369 1.52848 20.2263 1.53286 20.6569 1.7823C21.3194 2.16486 21.555 2.94692 21.7831 3.7033C21.9331 4.20092 22.0881 4.71536 22.3425 4.96917C22.5963 5.22298 23.1106 5.37861 23.6081 5.52867C24.3638 5.75686 25.1456 5.99249 25.5287 6.65449C25.9062 7.30649 25.7225 8.09536 25.545 8.85805C25.4262 9.37005 25.3031 9.90011 25.3988 10.2577C25.4875 10.5914 25.8488 10.9752 26.1981 11.3466Z" fill="#FFD366"/>
<path d="M22.7812 13.3132C22.7812 18.156 18.8419 22.0955 14 22.0955C13.705 22.0955 13.4131 22.0811 13.125 22.0518C8.6925 21.6117 5.21875 17.861 5.21875 13.3132C5.21875 8.76546 8.6925 5.01409 13.125 4.57402C13.4131 4.54465 13.705 4.53027 14 4.53027C18.8419 4.53027 22.7812 8.4704 22.7812 13.3132Z" fill="#FFD366"/>
<path d="M22.7812 13.3132C22.7812 18.156 18.8419 22.0955 14 22.0955C13.705 22.0955 13.4131 22.0811 13.125 22.0518C17.5575 21.6117 21.0312 17.861 21.0312 13.3132C21.0312 8.76546 17.5575 5.01409 13.125 4.57402C13.4131 4.54465 13.705 4.53027 14 4.53027C18.8419 4.53027 22.7812 8.4704 22.7812 13.3132Z" fill="#FFAF5F"/>
<path d="M13.9998 9.67284C14.8742 9.67284 15.5855 10.3842 15.5855 11.2585C15.5855 11.5175 15.7954 11.7273 16.0543 11.7273C16.3132 11.7273 16.523 11.5174 16.523 11.2585C16.523 10.0273 15.6366 8.99996 14.4686 8.77953V7.66315C14.4686 7.40421 14.2587 7.19434 13.9998 7.19434C13.7409 7.19434 13.5311 7.40427 13.5311 7.66315V8.77953C12.363 8.99996 11.4766 10.0273 11.4766 11.2585C11.4766 12.6499 12.6084 13.7818 13.9998 13.7818C14.8742 13.7818 15.5855 14.4932 15.5855 15.3675C15.5855 16.2418 14.8742 16.9532 13.9998 16.9532C13.1254 16.9532 12.4141 16.2418 12.4141 15.3675C12.4141 15.1085 12.2042 14.8987 11.9453 14.8987C11.6864 14.8987 11.4766 15.1086 11.4766 15.3675C11.4766 16.5987 12.363 17.626 13.5311 17.8465V18.9629C13.5311 19.2218 13.7409 19.4317 13.9998 19.4317C14.2587 19.4317 14.4686 19.2217 14.4686 18.9629V17.8465C15.6366 17.626 16.523 16.5987 16.523 15.3675C16.523 13.9761 15.3912 12.8442 13.9998 12.8442C13.1254 12.8442 12.4141 12.1328 12.4141 11.2585C12.4141 10.3841 13.1254 9.67284 13.9998 9.67284Z" fill="white"/>
<path d="M7.78125 13.3135C7.78125 13.5725 7.99112 13.7824 8.24994 13.7824C8.50881 13.7824 8.71869 13.5725 8.71869 13.3135C8.71869 13.0546 8.50881 12.8447 8.24994 12.8447C7.99106 12.8448 7.78125 13.0547 7.78125 13.3135Z" fill="#FFAF5F"/>
<path d="M9.84564 8.68945C9.58677 8.68945 9.37695 8.89933 9.37695 9.15827C9.37695 9.4172 9.58683 9.62708 9.84564 9.62708C10.1045 9.62708 10.3144 9.4172 10.3144 9.15827C10.3144 8.89933 10.1045 8.68945 9.84564 8.68945Z" fill="#FFAF5F"/>
<path d="M9.84564 17C9.58677 17 9.37695 17.2099 9.37695 17.4688C9.37695 17.7278 9.58683 17.9376 9.84564 17.9376C10.1045 17.9376 10.3144 17.7278 10.3144 17.4688C10.3144 17.2099 10.1045 17 9.84564 17Z" fill="#FFAF5F"/>
<path d="M19.75 13.7822C20.0089 13.7822 20.2188 13.5724 20.2188 13.3135C20.2188 13.0546 20.0089 12.8447 19.75 12.8447C19.4911 12.8447 19.2812 13.0546 19.2812 13.3135C19.2812 13.5724 19.4911 13.7822 19.75 13.7822Z" fill="#FFAF5F"/>
<path d="M18.1543 9.62695C18.4132 9.62695 18.623 9.41709 18.623 9.1582C18.623 8.89932 18.4132 8.68945 18.1543 8.68945C17.8954 8.68945 17.6855 8.89932 17.6855 9.1582C17.6855 9.41709 17.8954 9.62695 18.1543 9.62695Z" fill="#FFAF5F"/>
<path d="M18.1543 17.9375C18.4132 17.9375 18.623 17.7276 18.623 17.4688C18.623 17.2099 18.4132 17 18.1543 17C17.8954 17 17.6855 17.2099 17.6855 17.4688C17.6855 17.7276 17.8954 17.9375 18.1543 17.9375Z" fill="#FFAF5F"/>
</svg>
