<?xml version="1.0" encoding="UTF-8" standalone="no"?>
<svg width="32" height="32" viewBox="0 0 32 32" fill="none" xmlns="http://www.w3.org/2000/svg">
<path d="M18.5351 32.0001H13.7153C13.4453 32.0001 13.2233 31.7868 13.2118 31.517C13.1492 30.0597 13.2381 28.752 13.2381 28.752H19.0122C19.0122 28.752 19.1016 30.0598 19.0387 31.5171C19.0271 31.7869 18.8051 32.0001 18.5351 32.0001Z" fill="#F79E60"/>
<path d="M18.5344 32.0001H16.9512C17.0613 30.3622 16.9512 28.752 16.9512 28.752H19.0115C19.0115 28.752 19.1009 30.0598 19.038 31.5171C19.0264 31.787 18.8044 32.0001 18.5344 32.0001Z" fill="#D77D41"/>
<path d="M21.2579 28.1327C21.2225 28.3543 21.0458 28.5257 20.8235 28.5551C20.2535 28.6306 19.6903 28.6895 19.1384 28.7335C15.4417 29.0307 12.2715 28.6912 11.2248 28.5554C11.003 28.5267 10.8275 28.3544 10.7923 28.1335C10.576 26.7773 10.6838 25.5854 10.7759 24.9598L19.3019 24.9475L21.2714 24.9443C21.3642 25.5655 21.476 26.7656 21.2579 28.1327Z" fill="#0B687F"/>
<path d="M20.8238 28.5551C20.2539 28.6306 19.6906 28.6895 19.1387 28.7335C19.3421 27.2064 19.3383 25.8125 19.3022 24.9475L21.2718 24.9443C21.3645 25.5656 21.4763 26.7656 21.2582 28.1328C21.2229 28.3542 21.0462 28.5256 20.8238 28.5551Z" fill="#124A6A"/>
<path d="M31.6054 19.9434C31.5859 20.0924 31.5007 20.2246 31.3734 20.3043C31.0662 20.4965 30.4141 20.8924 29.4694 21.4027C26.8672 22.808 22.0467 25.0833 16.1076 26.3668C16.0369 26.3821 15.9631 26.3821 15.8924 26.3668C7.79774 24.6177 1.78081 21.0259 0.626744 20.3043C0.499431 20.2246 0.414056 20.0923 0.394556 19.9434C-0.411881 13.7914 0.242681 7.70012 0.395744 6.43962C0.414056 6.28862 0.499244 6.15444 0.628181 6.07381C1.78568 5.35 7.80106 1.75981 15.8924 0.0114375C15.9631 -0.0038125 16.0368 -0.0038125 16.1075 0.0114375C22.0942 1.30475 26.9449 3.60687 29.5318 5.00975C30.4409 5.50331 31.0707 5.88556 31.3717 6.07381C31.5007 6.15444 31.5858 6.28856 31.6042 6.43962C31.7573 7.70019 32.4119 13.7915 31.6054 19.9434Z" fill="#EA1C4B"/>
<path d="M31.3727 20.3043C31.0655 20.4965 30.4134 20.8924 29.4688 21.4027C30.1062 14.2178 29.6922 7.21064 29.5312 5.00977C30.4403 5.50333 31.0701 5.88558 31.3711 6.07383C31.5001 6.15445 31.5852 6.28858 31.6036 6.43964C31.7566 7.7002 32.4112 13.7915 31.6047 19.9435C31.5852 20.0925 31.5 20.2246 31.3727 20.3043Z" fill="#FF4771"/>
<path d="M16.0635 23.3645C16.5969 23.3645 17.0293 22.932 17.0293 22.3986C17.0293 21.8651 16.5969 21.4326 16.0635 21.4326C15.5301 21.4326 15.0977 21.8651 15.0977 22.3986C15.0977 22.932 15.5301 23.3645 16.0635 23.3645Z" fill="white"/>
<path d="M7.13573 18.9209C6.60236 18.9209 6.16992 19.3533 6.16992 19.8868C6.16992 20.4203 6.60229 20.8528 7.13573 20.8528C7.6691 20.8528 8.10154 20.4203 8.10154 19.8868C8.10148 19.3533 7.6691 18.9209 7.13573 18.9209Z" fill="white"/>
<path d="M25.1963 18.9209C24.6629 18.9209 24.2305 19.3533 24.2305 19.8868C24.2305 20.4203 24.6628 20.8528 25.1963 20.8528C25.7297 20.8528 26.162 20.4203 26.162 19.8868C26.1621 19.3533 25.7297 18.9209 25.1963 18.9209Z" fill="white"/>
<path d="M16.0635 3.01562C15.5301 3.01562 15.0977 3.44806 15.0977 3.98156C15.0977 4.51506 15.53 4.9475 16.0635 4.9475C16.5968 4.9475 17.0292 4.51506 17.0292 3.98156C17.0293 3.44806 16.5968 3.01562 16.0635 3.01562Z" fill="white"/>
<path d="M7.13573 5.52734C6.60236 5.52734 6.16992 5.95978 6.16992 6.49328C6.16992 7.02678 6.60229 7.45922 7.13573 7.45922C7.6691 7.45922 8.10154 7.02678 8.10154 6.49328C8.10148 5.95978 7.6691 5.52734 7.13573 5.52734Z" fill="white"/>
<path d="M25.1963 7.45824C25.7297 7.45824 26.162 7.0258 26.162 6.4923C26.162 5.95887 25.7297 5.52637 25.1963 5.52637C24.6629 5.52637 24.2305 5.9588 24.2305 6.4923C24.2305 7.0258 24.6629 7.45824 25.1963 7.45824Z" fill="white"/>
<path d="M7.25177 10.7969C7.51064 10.7969 7.72052 10.5871 7.72052 10.3281C7.72052 10.0692 7.51064 9.85938 7.25177 9.85938H4.80664C4.54777 9.85938 4.33789 10.0692 4.33789 10.3281V15.9044C4.33789 16.1633 4.54777 16.3731 4.80664 16.3731H7.25177C7.51064 16.3731 7.72052 16.1633 7.72052 15.9044C7.72052 15.6455 7.51064 15.4356 7.25177 15.4356H5.27539V10.7969H7.25177Z" fill="white"/>
<path d="M27.244 9.85938H24.6738C24.4149 9.85938 24.2051 10.0692 24.2051 10.3281V15.9044C24.2051 16.1633 24.4149 16.3731 24.6738 16.3731H27.244C27.503 16.3731 27.7128 16.1633 27.7128 15.9044V10.3281C27.7128 10.0693 27.5029 9.85938 27.244 9.85938ZM26.7753 15.4356H25.1426V10.7969H26.7753V15.4356Z" fill="white"/>
<path d="M16.1873 10.7969C16.4462 10.7969 16.656 10.5871 16.656 10.3281C16.656 10.0692 16.4462 9.85938 16.1873 9.85938H13.8047C13.5458 9.85938 13.3359 10.0692 13.3359 10.3281V13.1163C13.3359 13.3752 13.5458 13.585 13.8047 13.585H15.7186V15.4356H13.8047C13.5458 15.4356 13.3359 15.6454 13.3359 15.9043C13.3359 16.1633 13.5458 16.3731 13.8047 16.3731H16.1873C16.4462 16.3731 16.656 16.1633 16.656 15.9043V13.1163C16.656 12.8573 16.4462 12.6475 16.1873 12.6475H14.2734V10.7969H16.1873Z" fill="white"/>
<path d="M11.83 9.85938H9.13477C8.87589 9.85938 8.66602 10.0692 8.66602 10.3281V15.9044C8.66602 16.1633 8.87589 16.3731 9.13477 16.3731C9.39364 16.3731 9.60352 16.1633 9.60352 15.9044V14.2099H11.3612V15.9044C11.3612 16.1633 11.5711 16.3731 11.83 16.3731C12.0888 16.3731 12.2987 16.1633 12.2987 15.9044V10.3281C12.2987 10.0693 12.0888 9.85938 11.83 9.85938ZM9.60352 13.2724V10.7969H11.3612V13.2724H9.60352Z" fill="white"/>
<path d="M18.1035 9.85938C17.8446 9.85938 17.6348 10.0692 17.6348 10.3281V15.9044C17.6348 16.1633 17.8446 16.3731 18.1035 16.3731C18.3625 16.3731 18.5723 16.1633 18.5723 15.9044V10.3281C18.5723 10.0693 18.3624 9.85938 18.1035 9.85938Z" fill="white"/>
<path d="M22.7987 9.85938C22.5398 9.85938 22.33 10.0692 22.33 10.3281V13.9388L20.3968 10.1166C20.299 9.92288 20.0808 9.82201 19.8698 9.87213C19.6587 9.92251 19.5098 10.1111 19.5098 10.3281V15.9044C19.5098 16.1633 19.7196 16.3731 19.9785 16.3731C20.2375 16.3731 20.4473 16.1633 20.4473 15.9044V12.2937L22.3804 16.116C22.4615 16.2763 22.6249 16.3732 22.7985 16.3732C22.8346 16.3732 22.8711 16.369 22.9074 16.3603C23.1185 16.31 23.2674 16.1214 23.2674 15.9044V10.3281C23.2675 10.0693 23.0576 9.85938 22.7987 9.85938Z" fill="white"/>
<path d="M12.0649 5.13086C12.0649 4.87198 11.8549 4.66211 11.596 4.66211C11.337 4.66211 11.127 4.87198 11.127 5.13086C11.127 5.38973 11.337 5.59961 11.596 5.59961C11.855 5.59961 12.0649 5.38973 12.0649 5.13086Z" fill="white"/>
<path d="M21.0043 5.13086C21.0043 4.87198 20.7944 4.66211 20.5354 4.66211C20.2764 4.66211 20.0664 4.87198 20.0664 5.13086C20.0664 5.38973 20.2763 5.59961 20.5354 5.59961C20.7944 5.59961 21.0043 5.38973 21.0043 5.13086Z" fill="white"/>
<path d="M11.127 21.3652C11.127 21.6241 11.337 21.834 11.596 21.834C11.855 21.834 12.0649 21.6241 12.0649 21.3652C12.0649 21.1064 11.8549 20.8965 11.596 20.8965C11.337 20.8965 11.127 21.1064 11.127 21.3652Z" fill="white"/>
<path d="M20.0664 21.3652C20.0664 21.6241 20.2763 21.834 20.5354 21.834C20.7944 21.834 21.0043 21.6241 21.0043 21.3652C21.0043 21.1064 20.7944 20.8965 20.5354 20.8965C20.2764 20.8965 20.0664 21.1064 20.0664 21.3652Z" fill="white"/>
</svg>
