<?xml version="1.0" encoding="UTF-8" standalone="no"?>
<svg width="32" height="32" viewBox="0 0 32 32" fill="none" xmlns="http://www.w3.org/2000/svg">
<path d="M18.5058 32.0001H13.686C13.416 32.0001 13.194 31.7869 13.1825 31.517C13.1199 30.0597 13.2088 28.752 13.2088 28.752H18.9829C18.9829 28.752 19.0723 30.0598 19.0094 31.5171C18.9978 31.7869 18.7758 32.0001 18.5058 32.0001Z" fill="#F79E60"/>
<path d="M18.5051 32.0001H16.9219C17.032 30.3622 16.9219 28.752 16.9219 28.752H18.9822C18.9822 28.752 19.0716 30.0598 19.0087 31.5171C18.9971 31.787 18.7751 32.0001 18.5051 32.0001Z" fill="#D77D41"/>
<path d="M21.2286 28.1327C21.1932 28.3543 21.0165 28.5257 20.7942 28.5551C20.2242 28.6306 19.661 28.6895 19.1091 28.7335C15.4124 29.0307 12.2422 28.6912 11.1955 28.5554C10.9737 28.5267 10.7982 28.3544 10.763 28.1335C10.5467 26.7773 10.6545 25.5854 10.7467 24.9598L19.2726 24.9475L21.2422 24.9443C21.3349 25.5655 21.4467 26.7656 21.2286 28.1327Z" fill="#0B687F"/>
<path d="M20.7925 28.5551C20.2226 28.6306 19.6594 28.6895 19.1074 28.7335C19.3109 27.2064 19.307 25.8125 19.271 24.9475L21.2405 24.9443C21.3333 25.5656 21.445 26.7656 21.2269 28.1328C21.1916 28.3542 21.0149 28.5256 20.7925 28.5551Z" fill="#124A6A"/>
<path d="M31.7946 23.3682C31.7839 23.5786 31.63 23.7542 31.4228 23.7923C29.9039 24.0716 23.6558 25.1274 15.9999 25.1274C8.34431 25.1274 2.0965 24.0717 0.577253 23.7924C0.36994 23.7543 0.216065 23.5784 0.205378 23.3679C0.18994 23.0634 0.175503 22.7597 0.162128 22.457C-0.186685 14.6244 0.123565 7.41375 0.20544 5.75356C0.215815 5.54275 0.369503 5.36725 0.577128 5.32906C1.6935 5.12375 5.36481 4.49875 10.2715 4.182C11.0434 1.75688 13.3144 0 15.9961 0C18.6771 0 20.9481 1.75625 21.7207 4.18138C25.4068 4.41894 28.3963 4.83094 30.1302 5.10844C30.7066 5.20056 31.1443 5.27794 31.4229 5.32912C31.6305 5.36731 31.784 5.543 31.7944 5.75381C31.8796 7.4785 32.2109 15.1907 31.7946 23.3682Z" fill="url(#paint0_linear)"/>
<path d="M31.7946 23.3681C31.7839 23.5786 31.63 23.7542 31.4227 23.7923C29.9039 24.0716 23.6558 25.1273 15.9999 25.1273C8.3443 25.1273 2.09648 24.0716 0.577234 23.7923C0.369922 23.7542 0.216047 23.5784 0.205359 23.3679C0.189922 23.0634 0.175484 22.7596 0.162109 22.457C3.90492 22.9765 16.667 24.4604 30.1714 22.7737C30.3549 14.7683 30.2017 7.69571 30.1302 5.1084C30.7067 5.20052 31.1444 5.2779 31.4229 5.32909C31.6306 5.36727 31.7841 5.54296 31.7945 5.75377C31.8796 7.47846 32.2109 15.1906 31.7946 23.3681Z" fill="#2E965D"/>
<path d="M17.0644 4.88333L18.8367 5.14395C19.088 5.18089 19.1878 5.49008 19.0056 5.66708L17.7207 6.91489L18.0203 8.68058C18.0628 8.93102 17.7997 9.12152 17.5751 9.00289L15.991 8.16664L14.4038 8.99733C14.1787 9.11514 13.9163 8.9237 13.9597 8.67339L14.2656 6.90877L12.9851 5.65645C12.8035 5.47883 12.9044 5.17002 13.1559 5.13395L14.9291 4.87958L15.7248 3.27483C15.8376 3.04727 16.1624 3.04783 16.2745 3.27583L17.0644 4.88333Z" fill="#FFF18D"/>
<path d="M16.001 20.6221C15.4676 20.6221 15.0352 21.0543 15.0352 21.5875C15.0352 22.1207 15.4676 22.5529 16.001 22.5529C16.5345 22.5529 16.9669 22.1207 16.9669 21.5875C16.9669 21.0543 16.5345 20.6221 16.001 20.6221Z" fill="white"/>
<path d="M7.11041 20.4287C6.57697 20.4287 6.14453 20.861 6.14453 21.3941C6.14453 21.9273 6.57697 22.3596 7.11041 22.3596C7.64385 22.3596 8.07629 21.9273 8.07629 21.3941C8.07629 20.861 7.64385 20.4287 7.11041 20.4287Z" fill="white"/>
<path d="M24.8819 20.4287C24.3485 20.4287 23.916 20.861 23.916 21.3941C23.916 21.9273 24.3485 22.3596 24.8819 22.3596C25.4153 22.3596 25.8478 21.9273 25.8478 21.3941C25.8478 20.861 25.4153 20.4287 24.8819 20.4287Z" fill="white"/>
<path d="M7.11041 7.01367C6.57697 7.01367 6.14453 7.44592 6.14453 7.97911C6.14453 8.5123 6.57697 8.94455 7.11041 8.94455C7.64385 8.94455 8.07629 8.5123 8.07629 7.97911C8.07629 7.44592 7.64385 7.01367 7.11041 7.01367Z" fill="white"/>
<path d="M24.8819 8.94455C25.4153 8.94455 25.8478 8.5123 25.8478 7.97911C25.8478 7.44592 25.4153 7.01367 24.8819 7.01367C24.3485 7.01367 23.916 7.44592 23.916 7.97911C23.916 8.5123 24.3485 8.94455 24.8819 8.94455Z" fill="white"/>
<path d="M5.36139 11.2666C5.10245 11.2666 4.89264 11.4764 4.89264 11.7354V16.8427H3.57226V15.483C3.57226 15.2241 3.36239 15.0143 3.10352 15.0143C2.84458 15.0143 2.63477 15.2241 2.63477 15.483V17.3115C2.63477 17.5704 2.84458 17.7802 3.10352 17.7802H5.36139C5.62032 17.7802 5.83014 17.5704 5.83014 17.3115V11.7354C5.83014 11.4764 5.62032 11.2666 5.36139 11.2666Z" fill="white"/>
<path d="M9.3067 11.2656H7.23633C6.97739 11.2656 6.76758 11.4754 6.76758 11.7344V17.3105C6.76758 17.5694 6.97745 17.7793 7.23633 17.7793C7.49527 17.7793 7.70508 17.5694 7.70508 17.3105V15.8998H8.83789V17.3105C8.83789 17.5694 9.0477 17.7793 9.30664 17.7793C9.56558 17.7793 9.77539 17.5694 9.77539 17.3105V11.7344C9.77545 11.4754 9.56558 11.2656 9.3067 11.2656ZM8.83789 14.9623H7.70508V12.2031H8.83789V14.9623Z" fill="white"/>
<path d="M13.127 12.2031C13.386 12.2031 13.5958 11.9933 13.5958 11.7344C13.5958 11.4754 13.3859 11.2656 13.127 11.2656H11.1816C10.9227 11.2656 10.7129 11.4754 10.7129 11.7344V17.3105C10.7129 17.5694 10.9227 17.7793 11.1816 17.7793H13.127C13.386 17.7793 13.5958 17.5694 13.5958 17.3105C13.5958 17.0516 13.3859 16.8418 13.127 16.8418H11.6504V12.2031H13.127V12.2031Z" fill="white"/>
<path d="M24.9493 11.2656H22.8164C22.5575 11.2656 22.3477 11.4754 22.3477 11.7344V17.3105C22.3477 17.5694 22.5575 17.7793 22.8164 17.7793H24.9493C25.2082 17.7793 25.418 17.5694 25.418 17.3105V11.7344C25.4181 11.4754 25.2082 11.2656 24.9493 11.2656ZM24.4805 16.8418H23.2852V12.2031H24.4805V16.8418Z" fill="white"/>
<path d="M17.2285 11.2872C16.9813 11.2099 16.7184 11.3471 16.6408 11.5941L15.8688 14.0537H15.3691V11.7344C15.3691 11.4755 15.1593 11.2657 14.9004 11.2657C14.6415 11.2657 14.4316 11.4755 14.4316 11.7344V17.3106C14.4316 17.5695 14.6415 17.7793 14.9004 17.7793C15.1593 17.7793 15.3691 17.5695 15.3691 17.3106V14.9912H15.8688L16.6408 17.4509C16.7037 17.6512 16.8886 17.7794 17.0879 17.7794C17.1344 17.7794 17.1818 17.7725 17.2284 17.7578C17.4754 17.6802 17.6129 17.4172 17.5353 17.1702L16.7043 14.5225L17.5353 11.8748C17.6129 11.6278 17.4755 11.3647 17.2285 11.2872Z" fill="white"/>
<path d="M21.002 11.2656H18.8691C18.6102 11.2656 18.4004 11.4754 18.4004 11.7344V17.3105C18.4004 17.5694 18.6103 17.7793 18.8691 17.7793C19.1281 17.7793 19.3379 17.5694 19.3379 17.3105V15.8998H21.002C21.261 15.8998 21.4708 15.69 21.4708 15.4311V11.7344C21.4708 11.4754 21.261 11.2656 21.002 11.2656ZM20.5333 14.9623H19.338V12.2031H20.5333V14.9623Z" fill="white"/>
<path d="M28.8868 11.2656H26.7539C26.495 11.2656 26.2852 11.4754 26.2852 11.7344C26.2852 11.9932 26.495 12.2031 26.7539 12.2031H27.3516V17.3106C27.3516 17.5695 27.5614 17.7793 27.8203 17.7793C28.0793 17.7793 28.2891 17.5695 28.2891 17.3106V12.2031H28.8868C29.1457 12.2031 29.3555 11.9933 29.3555 11.7344C29.3555 11.4754 29.1457 11.2656 28.8868 11.2656Z" fill="white"/>
<path d="M10.8379 7.64746C10.8379 7.90633 11.0478 8.1162 11.3069 8.1162C11.5659 8.1162 11.7758 7.90633 11.7758 7.64746C11.7758 7.38858 11.5659 7.17871 11.3069 7.17871C11.0478 7.17865 10.8379 7.38852 10.8379 7.64746Z" fill="white"/>
<path d="M21.1528 7.64746C21.1528 7.38858 20.9428 7.17871 20.6838 7.17871C20.4248 7.17871 20.2148 7.38858 20.2148 7.64746C20.2148 7.90633 20.4248 8.1162 20.6838 8.1162C20.9428 8.1162 21.1528 7.90633 21.1528 7.64746Z" fill="white"/>
<path d="M10.8379 21.5459C10.8379 21.8048 11.0478 22.0146 11.3069 22.0146C11.5659 22.0146 11.7758 21.8048 11.7758 21.5459C11.7758 21.287 11.5659 21.0771 11.3069 21.0771C11.0478 21.0771 10.8379 21.287 10.8379 21.5459Z" fill="white"/>
<path d="M20.2148 21.5459C20.2148 21.8048 20.4248 22.0146 20.6838 22.0146C20.9428 22.0146 21.1528 21.8048 21.1528 21.5459C21.1528 21.287 20.9428 21.0771 20.6838 21.0771C20.4248 21.0771 20.2148 21.287 20.2148 21.5459Z" fill="white"/>
<path d="M7.71798 0.279446C7.61323 0.0426337 7.33629 -0.0645539 7.09973 0.0401336C6.86292 0.144821 6.75579 0.421571 6.86042 0.658384L7.76673 2.70945C7.84417 2.88463 8.01579 2.98888 8.19573 2.98888C8.25904 2.98888 8.32336 2.97601 8.38492 2.94876C8.62173 2.84407 8.72886 2.56732 8.62423 2.33051L7.71798 0.279446Z" fill="#FFF18D"/>
<path d="M4.50745 2.72545L2.78289 1.33258C2.58139 1.16995 2.28633 1.20139 2.12364 1.4027C1.96095 1.60408 1.99239 1.8992 2.19377 2.06195L3.91827 3.45483C4.00502 3.52483 4.10914 3.55889 4.21252 3.55889C4.34927 3.55889 4.48489 3.49933 4.57752 3.3847C4.7402 3.18327 4.70877 2.88814 4.50745 2.72545Z" fill="#FFF18D"/>
<path d="M24.9006 0.0400709C24.6641 -0.0644916 24.387 0.0426334 24.2824 0.279383L23.376 2.33045C23.2714 2.56726 23.3785 2.84401 23.6154 2.9487C23.6769 2.97595 23.7413 2.98882 23.8045 2.98882C23.9845 2.98882 24.1562 2.88457 24.2335 2.70938L25.1398 0.658321C25.2446 0.421508 25.1375 0.144758 24.9006 0.0400709Z" fill="#FFF18D"/>
<path d="M27.7874 3.55891C27.8908 3.55891 27.9949 3.52485 28.0817 3.45485L29.8062 2.06197C30.0076 1.89922 30.039 1.60416 29.8764 1.40272C29.7137 1.20135 29.4186 1.16997 29.2171 1.3326L27.4926 2.72547C27.2912 2.88822 27.2598 3.18329 27.4225 3.38472C27.5151 3.49935 27.6507 3.55891 27.7874 3.55891Z" fill="#FFF18D"/>
<path d="M8.38499 26.3525C8.14842 26.248 7.87136 26.3551 7.76673 26.5919L6.86042 28.6429C6.75579 28.8797 6.86292 29.1565 7.09973 29.2612C7.1613 29.2884 7.22567 29.3013 7.28892 29.3013C7.46886 29.3013 7.64055 29.197 7.71798 29.0218L8.6243 26.9708C8.72886 26.734 8.6218 26.4572 8.38499 26.3525Z" fill="#FFF18D"/>
<path d="M3.91833 25.8463L2.19376 27.2392C1.99239 27.4019 1.96095 27.697 2.12364 27.8985C2.21627 28.0131 2.35183 28.0726 2.48864 28.0726C2.59201 28.0726 2.69614 28.0386 2.78289 27.9686L4.50739 26.5757C4.70876 26.4129 4.7402 26.1179 4.57751 25.9164C4.41482 25.715 4.11976 25.6836 3.91833 25.8463Z" fill="#FFF18D"/>
<path d="M24.2336 26.5919C24.1289 26.3551 23.852 26.248 23.6154 26.3526C23.3785 26.4573 23.2714 26.734 23.376 26.9709L24.2824 29.0219C24.3598 29.1971 24.5315 29.3013 24.7114 29.3013C24.7747 29.3013 24.8391 29.2885 24.9006 29.2612C25.1374 29.1565 25.2446 28.8798 25.1399 28.643L24.2336 26.5919Z" fill="#FFF18D"/>
<path d="M29.8062 27.2391L28.0817 25.8463C27.8803 25.6836 27.5852 25.7151 27.4225 25.9164C27.2598 26.1178 27.2912 26.4129 27.4926 26.5756L29.2171 27.9685C29.3039 28.0385 29.408 28.0726 29.5114 28.0726C29.6481 28.0726 29.7837 28.013 29.8764 27.8984C30.039 27.697 30.0076 27.4018 29.8062 27.2391Z" fill="#FFF18D"/>
<defs>
<linearGradient id="paint0_linear" x1="-5.10638" y1="34.8991" x2="22.9738" y2="-12.8467" gradientUnits="userSpaceOnUse">
<stop offset="0.171875" stop-color="#81B036"/>
<stop offset="1" stop-color="#89D115"/>
</linearGradient>
</defs>
</svg>
