<?xml version="1.0" encoding="UTF-8" standalone="no"?>
<svg width="32" height="32" viewBox="0 0 32 32" fill="none" xmlns="http://www.w3.org/2000/svg">
<path d="M32 16C32 18.164 31.5699 20.2282 30.7914 22.1109L26.7248 26.1009L24.1835 28.5946L21.8289 30.9048C20.0229 31.6118 18.0565 32 16 32C15.7199 32 15.4418 31.9929 15.1656 31.9781C13.4091 31.8886 11.728 31.5146 10.1666 30.9029L1.20725 22.1064C0.428813 20.225 0 18.1628 0 16C0 13.9429 0.38825 11.9765 1.09519 10.1704L9.88912 1.20919C11.5278 0.530563 13.3041 0.117188 15.1643 0.02125C15.4411 0.0070625 15.7199 0 16 0C18.1628 0 20.2251 0.428813 22.1064 1.20725L24.582 3.72925L26.7853 5.9725L30.9028 10.1666C31.6111 11.9739 32 13.9416 32 16Z" fill="#FFF18D"/>
<path d="M15.166 31.9783C18.5566 31.8025 21.6717 30.5656 24.184 28.5947L21.8293 30.9049C20.0233 31.6119 18.057 32.0001 16.0005 32.0001C15.7204 32.0001 15.4422 31.9931 15.166 31.9783Z" fill="#FFD366"/>
<path d="M22.1062 1.20725L24.5818 3.72925C22.0032 1.56975 18.7369 0.206687 15.1641 0.02125C15.4409 0.0070625 15.7197 0 15.9998 0C18.1626 0 20.2249 0.428813 22.1062 1.20725Z" fill="#FFD366"/>
<path d="M31.9998 16.0002C31.9998 18.1642 31.5697 20.2285 30.7912 22.1111L26.7246 26.1011C28.9749 23.3447 30.3257 19.8273 30.3257 16.0002C30.3257 12.2072 28.9987 8.71803 26.7851 5.97266L30.9026 10.1668C31.6109 11.9742 31.9998 13.9418 31.9998 16.0002Z" fill="#FFD366"/>
<path d="M29.5641 20.8829L30.792 22.1107C29.1315 26.1265 25.8826 29.3188 21.8295 30.9046L21.3156 30.3908L15.9973 25.0725L10.1671 30.9027C6.11464 29.3155 2.86702 26.1226 1.20777 22.1062L7.1197 16.1943L1.0957 10.1703C2.6822 6.11716 5.87445 2.86884 9.88958 1.20897L15.9973 7.31666L22.1069 1.20703C26.1233 2.86628 29.3162 6.11391 30.9033 10.1664L24.8755 16.1943L29.5641 20.8829Z" fill="#FFD366"/>
<path d="M15.9994 28.7811C23.058 28.7811 28.7801 23.059 28.7801 16.0004C28.7801 8.94183 23.058 3.21973 15.9994 3.21973C8.94086 3.21973 3.21875 8.94183 3.21875 16.0004C3.21875 23.059 8.94086 28.7811 15.9994 28.7811Z" fill="#DCFFF1"/>
<path d="M29.563 20.8828L30.7908 22.1106C29.1303 26.1264 25.8814 29.3187 21.8283 30.9045L21.3145 30.3907C25.2079 28.4926 28.2218 25.0589 29.563 20.8828Z" fill="#FFAF5F"/>
<path d="M21.5742 1.73822L22.1054 1.20703C26.1218 2.86628 29.3147 6.11391 30.9018 10.1664L29.6547 11.4136C28.3915 7.19816 25.4329 3.70778 21.5742 1.73822Z" fill="#FFAF5F"/>
<path d="M26.5824 16.0002C26.5824 21.8355 21.8345 26.5834 15.9992 26.5834C15.6734 26.5834 15.3515 26.5686 15.0334 26.5396C9.64877 26.0502 5.41602 21.5097 5.41602 16.0002C5.41602 10.4906 9.64877 5.95012 15.0334 5.4608C15.3515 5.4318 15.6734 5.41699 15.9992 5.41699C21.8345 5.41699 26.5824 10.1649 26.5824 16.0002Z" fill="#FFD366"/>
<path d="M26.5842 16.0001C26.5842 21.8354 21.8363 26.5833 16.001 26.5833C15.6752 26.5833 15.3532 26.5685 15.0352 26.5396C20.4198 26.0502 24.6525 21.5097 24.6525 16.0002C24.6525 10.4906 20.4198 5.95012 15.0352 5.4608C15.3532 5.4318 15.6752 5.41699 16.001 5.41699C21.8363 5.41693 26.5842 10.1648 26.5842 16.0001Z" fill="#FFAF5F"/>
<path d="M15.5137 8.15332C15.5137 7.89445 15.7236 7.68457 15.9826 7.68457C16.2415 7.68457 16.4514 7.89445 16.4514 8.15332C16.4514 8.4122 16.2415 8.62207 15.9826 8.62207C15.7236 8.62213 15.5137 8.41226 15.5137 8.15332Z" fill="#FFAF5F"/>
<path d="M16.4514 23.8467C16.4514 24.1056 16.2415 24.3154 15.9826 24.3154C15.7236 24.3154 15.5137 24.1056 15.5137 23.8467C15.5137 23.5878 15.7236 23.3779 15.9826 23.3779C16.2415 23.3779 16.4514 23.5878 16.4514 23.8467Z" fill="#FFAF5F"/>
<path d="M23.3594 16C23.3594 15.7411 23.5693 15.5312 23.8283 15.5312C24.0872 15.5312 24.2971 15.7411 24.2971 16C24.2971 16.2589 24.0872 16.4688 23.8283 16.4688C23.5693 16.4688 23.3594 16.2589 23.3594 16Z" fill="#FFAF5F"/>
<path d="M8.60377 16C8.60377 16.2589 8.39383 16.4688 8.13489 16.4688C7.87595 16.4688 7.66602 16.2589 7.66602 16C7.66602 15.7411 7.87595 15.5312 8.13489 15.5312C8.39389 15.5312 8.60377 15.7411 8.60377 16Z" fill="#FFAF5F"/>
<path d="M16.4514 8.15332C16.4514 7.89445 16.2415 7.68457 15.9826 7.68457C15.7236 7.68457 15.5137 7.89445 15.5137 8.15332C15.5137 8.4122 15.7236 8.62207 15.9826 8.62207C16.2415 8.62213 16.4514 8.41226 16.4514 8.15332Z" fill="#FFAF5F"/>
<path d="M7.66602 16C7.66602 16.2589 7.87595 16.4688 8.13489 16.4688C8.39383 16.4688 8.60377 16.2589 8.60377 16C8.60377 15.7411 8.39383 15.5312 8.13489 15.5312C7.87595 15.5312 7.66602 15.7411 7.66602 16Z" fill="#FFAF5F"/>
<path d="M24.2971 16C24.2971 15.7411 24.0872 15.5312 23.8283 15.5312C23.5693 15.5312 23.3594 15.7411 23.3594 16C23.3594 16.2589 23.5693 16.4688 23.8283 16.4688C24.0872 16.4688 24.2971 16.2589 24.2971 16Z" fill="#FFAF5F"/>
<path d="M15.5137 23.8467C15.5137 24.1056 15.7236 24.3154 15.9826 24.3154C16.2415 24.3154 16.4514 24.1056 16.4514 23.8467C16.4514 23.5878 16.2415 23.3779 15.9826 23.3779C15.7236 23.3779 15.5137 23.5878 15.5137 23.8467Z" fill="#FFAF5F"/>
<path d="M15.9824 21.8129C16.2413 21.8129 16.4512 21.6031 16.4512 21.3442V20.6467C17.64 20.4258 18.543 19.381 18.543 18.1292C18.543 16.7173 17.3944 15.5686 15.9824 15.5686C15.0875 15.5686 14.3594 14.8405 14.3594 13.9455C14.3594 13.0505 15.0874 12.3225 15.9824 12.3225C16.7231 12.3225 17.3694 12.8225 17.5541 13.5384C17.6188 13.7891 17.8745 13.9397 18.1251 13.8752C18.3758 13.8105 18.5266 13.5548 18.4619 13.3042C18.2101 12.3285 17.4156 11.6069 16.4512 11.428V10.7305C16.4512 10.4715 16.2413 10.2617 15.9824 10.2617C15.7236 10.2617 15.5137 10.4715 15.5137 10.7305V11.428C14.3249 11.6488 13.4219 12.6937 13.4219 13.9455C13.4219 15.3573 14.5705 16.506 15.9824 16.506C16.8774 16.506 17.6055 17.2341 17.6055 18.1291C17.6055 19.0241 16.8774 19.7522 15.9824 19.7522C15.2728 19.7522 14.6513 19.2984 14.4358 18.6232C14.3571 18.3766 14.0933 18.2406 13.8468 18.3191C13.6001 18.3978 13.4639 18.6615 13.5427 18.9082C13.8342 19.8218 14.5966 20.4785 15.5137 20.6471V21.3442C15.5137 21.6031 15.7236 21.8129 15.9824 21.8129Z" fill="white"/>
</svg>
