<svg width="57" height="57" viewBox="0 0 57 57" fill="none" xmlns="http://www.w3.org/2000/svg">
<path d="M54.3813 28.502L56.8821 21.9795C57.1564 21.2599 56.9426 20.4442 56.3406 19.9561L50.9186 15.5603L49.8214 8.66022C49.7003 7.8979 49.1018 7.303 48.3394 7.18189L41.4391 6.08471L37.0466 0.659401C36.5622 0.0573803 35.7286 -0.156355 35.0268 0.117939L28.5005 2.6222L21.9777 0.121501C21.2546 -0.156355 20.4459 0.0645047 19.9578 0.662963L15.5618 6.08828L8.66149 7.18545C7.9027 7.30657 7.30422 7.90503 7.1831 8.66378L6.08588 15.5639L0.660353 19.9597C0.0618713 20.4442 -0.155435 21.2599 0.11887 21.9795L2.61967 28.502L0.11887 35.0245C-0.158997 35.744 0.0618713 36.5598 0.660353 37.0443L6.08588 41.4365L7.1831 48.3366C7.30422 49.0989 7.89914 49.6974 8.66149 49.8185L15.5618 50.9157L19.9578 56.3374C20.4459 56.943 21.2617 57.1567 21.9813 56.8789L28.5005 54.3818L35.0232 56.8825C35.2298 56.9608 35.4436 57 35.6609 57C36.1845 57 36.7011 56.7685 37.0466 56.3374L41.4391 50.9157L48.3394 49.8185C49.1018 49.6974 49.7003 49.0989 49.8214 48.3366L50.9186 41.4365L56.3406 37.0443C56.9426 36.5562 57.1564 35.744 56.8821 35.0245L54.3813 28.502Z" fill="#EA1C4B"/>
</svg>
