<svg width="8" height="9" viewBox="0 0 8 9" fill="none" xmlns="http://www.w3.org/2000/svg">
<path d="M7.99982 4.50006C7.99982 5.60271 7.55116 6.60241 6.82699 7.32686L3.99991 8.49942C3.86063 8.49942 3.72273 8.49226 3.58704 8.47823C2.64899 8.38161 1.80563 7.95938 1.17283 7.32686L0 4.50006C0 3.39742 0.448655 2.39771 1.17283 1.67353L3.85871 0.559604L3.99991 0.500977C5.10255 0.500977 6.10281 0.949356 6.82699 1.67353L7.99982 4.50006Z" fill="#1792E7" fill-opacity="0.1"/>
<path d="M8.00108 4.50035H6.36941L5.67578 2.82629L6.38537 2.1167L6.82825 1.67383C7.55242 2.39801 8.00108 3.39771 8.00108 4.50035Z" fill="#EA1C4B"/>
<path d="M2.3253 6.17434L1.17283 7.3268C0.448655 6.60235 0 5.60265 0 4.5H1.63167L2.3253 6.17434Z" fill="#EA1C4B"/>
<path d="M3.99895 0.500977V2.13237L2.32434 2.826L1.17188 1.67353C1.80467 1.04074 2.64803 0.618783 3.58608 0.52217C3.72178 0.508133 3.85968 0.500977 3.99895 0.500977Z" fill="#EA1C4B"/>
<path d="M6.82708 7.32629C6.1029 8.0502 5.10265 8.49885 4 8.49885V6.86745L5.67461 6.17383L6.38393 6.88314L6.82708 7.32629Z" fill="#EA1C4B"/>
<path d="M6.57513 4.4999C6.57513 5.91936 5.42019 7.0743 4.00045 7.0743C3.86008 7.0743 3.72218 7.06302 3.58758 7.041C2.36355 6.84309 1.42578 5.77898 1.42578 4.4999C1.42578 3.22083 2.36355 2.15699 3.58758 1.95909C3.72218 1.93707 3.86008 1.92578 4.00045 1.92578C5.42019 1.92578 6.57513 3.08045 6.57513 4.4999Z" fill="#1792E7" fill-opacity="0.85"/>
<path d="M6.57348 4.4999C6.57348 5.91936 5.41854 7.0743 3.99881 7.0743C3.85843 7.0743 3.72053 7.06302 3.58594 7.041C4.80997 6.84309 5.74774 5.77898 5.74774 4.4999C5.74774 3.22083 4.80997 2.15699 3.58594 1.95909C3.72053 1.93707 3.85843 1.92578 3.99881 1.92578C5.41854 1.92578 6.57348 3.08045 6.57348 4.4999Z" fill="#1792E7"/>
<path d="M5.24848 4.49981C5.24848 5.18765 4.6889 5.74696 4.00106 5.74696C3.86151 5.74696 3.72746 5.72384 3.60195 5.68172C3.10953 5.51465 2.75391 5.0481 2.75391 4.49981C2.75391 3.95179 3.10953 3.48496 3.60195 3.31816C3.72746 3.27605 3.86151 3.25293 4.00106 3.25293C4.6889 3.25293 5.24848 3.81223 5.24848 4.49981Z" fill="white"/>
<path d="M5.2481 4.49981C5.2481 5.18765 4.68852 5.74696 4.00067 5.74696C3.86112 5.74696 3.72708 5.72384 3.60156 5.68172C4.09426 5.51465 4.44988 5.0481 4.44988 4.49981C4.44988 3.95179 4.09426 3.48496 3.60156 3.31816C3.72708 3.27605 3.86112 3.25293 4.00067 3.25293C4.68852 3.25293 5.2481 3.81223 5.2481 4.49981Z" fill="#1792E7" fill-opacity="0.1"/>
<path d="M7.99872 4.50006C7.99872 5.60271 7.55006 6.60241 6.82589 7.32686L3.99881 8.49942C3.85953 8.49942 3.72163 8.49226 3.58594 8.47823C5.59828 8.27096 7.17297 6.56608 7.17297 4.50006C7.17297 2.52846 5.7381 0.885223 3.85761 0.559604L3.99881 0.500977C5.10146 0.500977 6.10171 0.949356 6.82589 1.67353L7.99872 4.50006Z" fill="#1792E7" fill-opacity="0.85"/>
<path d="M3.99881 0.586854C3.86339 0.558228 3.72576 0.536483 3.58594 0.52217C3.72163 0.508133 3.85953 0.500977 3.99881 0.500977V0.586854Z" fill="#EA1C4B" fill-opacity="0.25"/>
<path d="M6.38393 6.88379L6.82708 7.32694C6.1029 8.05084 5.10265 8.4995 4 8.4995V8.41362C4.96998 8.20939 5.81168 7.65256 6.38393 6.88379Z" fill="#EA1C4B" fill-opacity="0.25"/>
<path d="M7.99852 4.50035H7.17278C7.17278 3.608 6.87881 2.7828 6.38281 2.1167L6.82569 1.67383C7.54987 2.39801 7.99852 3.39771 7.99852 4.50035Z" fill="white"/>
<path d="M7.99852 4.50035H7.17278C7.17278 3.608 6.87881 2.7828 6.38281 2.1167L6.82569 1.67383C7.54987 2.39801 7.99852 3.39771 7.99852 4.50035Z" fill="#EA1C4B" fill-opacity="0.25"/>
</svg>
