<svg width="10" height="8" viewBox="0 0 10 8" fill="none" xmlns="http://www.w3.org/2000/svg">
<path d="M1.37629 3.24218C1.19445 3.03436 0.878566 3.0133 0.670748 3.19514C0.462929 3.37698 0.441871 3.69286 0.623712 3.90068L1.37629 3.24218ZM4 7L3.62371 7.32925L4.00927 7.7699L4.38411 7.32009L4 7ZM9.38411 1.32009C9.56089 1.10795 9.53223 0.792671 9.32009 0.615889C9.10795 0.439107 8.79267 0.467769 8.61589 0.679908L9.38411 1.32009ZM0.623712 3.90068L3.62371 7.32925L4.37629 6.67075L1.37629 3.24218L0.623712 3.90068ZM4.38411 7.32009L9.38411 1.32009L8.61589 0.679908L3.61589 6.67991L4.38411 7.32009Z" fill="white"/>
</svg>
