<svg width="24" height="24" viewBox="0 0 24 24" fill="none" xmlns="http://www.w3.org/2000/svg">
<path d="M21.4219 24H2.57812C1.15655 24 0 22.8435 0 21.4219V9.23438C0 8.84606 0.314812 8.53125 0.703125 8.53125H23.2969C23.6852 8.53125 24 8.84606 24 9.23438V21.4219C24 22.8435 22.8435 24 21.4219 24Z" fill="#F4F2E6"/>
<path d="M23.2969 8.53125H12V24H21.4219C22.8435 24 24 22.8435 24 21.4219V9.23438C24 8.84606 23.6852 8.53125 23.2969 8.53125Z" fill="#96D1D9"/>
<path d="M21.4219 2.8125H2.57812C1.15655 2.8125 0 3.96905 0 5.39062V9.23438H24V5.39062C24 3.96905 22.8435 2.8125 21.4219 2.8125Z" fill="#FF6285"/>
<path d="M21.4219 2.8125H12V9.23438H24V5.39062C24 3.96905 22.8435 2.8125 21.4219 2.8125Z" fill="#EA1C4B"/>
<path d="M17.625 0C16.8483 0 16.2188 0.629578 16.2188 1.40625V5.625C16.2188 6.40167 16.8483 7.03125 17.625 7.03125C18.4017 7.03125 19.0312 6.40167 19.0312 5.625V1.40625C19.0312 0.629578 18.4017 0 17.625 0Z" fill="#F0AF09"/>
<path d="M6.375 7.03125C5.59833 7.03125 4.96875 6.40167 4.96875 5.625V1.40625C4.96875 0.629578 5.59833 0 6.375 0C7.15167 0 7.78125 0.629578 7.78125 1.40625V5.625C7.78125 6.40167 7.15167 7.03125 6.375 7.03125Z" fill="#FFF18D"/>
<path d="M15.2448 11.3438H13.4414C13.0531 11.3438 12.7383 11.6586 12.7383 12.0469C12.7383 12.4352 13.0531 12.75 13.4414 12.75H14.5417V20.4844C14.5417 20.8727 14.8565 21.1875 15.2448 21.1875C15.6331 21.1875 15.948 20.8727 15.948 20.4844V12.0469C15.948 11.6586 15.6332 11.3438 15.2448 11.3438Z" fill="#0C1C33"/>
<path d="M11.8008 14.1562C11.8008 12.6054 10.5391 11.3438 8.98828 11.3438C7.64733 11.3438 6.4867 12.2977 6.22856 13.6119C6.1537 13.9929 6.40195 14.3625 6.783 14.4374C7.16362 14.5122 7.53356 14.264 7.60842 13.8829C7.73737 13.2265 8.31769 12.75 8.98828 12.75C9.76369 12.75 10.3945 13.3808 10.3945 14.1562C10.3945 14.9317 9.76369 15.5625 8.98828 15.5625C8.59997 15.5625 8.28516 15.8773 8.28516 16.2656C8.28516 16.6539 8.59997 16.9688 8.98828 16.9688C9.76369 16.9688 10.3945 17.5996 10.3945 18.375C10.3945 19.1504 9.76369 19.7812 8.98828 19.7812C8.2905 19.7812 7.69181 19.2614 7.59562 18.5721C7.58662 18.5075 7.58203 18.4412 7.58203 18.375C7.58203 17.9867 7.26722 17.6719 6.87891 17.6719C6.49059 17.6719 6.17578 17.9867 6.17578 18.375C6.17578 18.5059 6.18487 18.6376 6.20283 18.7664C6.39544 20.1466 7.59291 21.1875 8.98828 21.1875C10.5391 21.1875 11.8008 19.9258 11.8008 18.375C11.8008 17.5356 11.4307 16.7814 10.8456 16.2656C11.4307 15.7499 11.8008 14.9957 11.8008 14.1562Z" fill="#143565"/>
</svg>
