<svg width="24" height="21" viewBox="0 0 24 21" fill="none" xmlns="http://www.w3.org/2000/svg">
<path d="M19.9998 2.66436L15.9806 0.0984881C14.5408 0.0449243 12.7974 0 11 0C9.2026 0 7.45919 0.0449243 6.01938 0.0984881L2.00021 2.66436C1.99689 2.75205 2.03289 2.83758 2.09967 2.90108C2.16693 2.96415 2.25881 3 2.35543 3H19.6446C19.7412 3 19.8335 2.96415 19.9003 2.90108C19.9671 2.83758 20.0031 2.75205 19.9998 2.66436Z" fill="#81EBEB"/>
<path d="M19.9998 2.65297C20.0031 2.74364 19.9673 2.83207 19.9008 2.89772C19.8344 2.96293 19.7424 3 19.6463 3H17.5055L17.4838 2.69585C16.551 2.08039 16 1.08575 16 0.000893276V0C16.8484 0.0326038 17.5908 0.0687808 18.1762 0.100045H18.1766C19.0411 0.146494 19.5633 0.182671 19.5775 0.183564C19.7552 0.19607 19.8952 0.331844 19.9046 0.50067C19.9357 1.08084 19.9673 1.78517 19.9998 2.65297Z" fill="#00CEC8"/>
<path d="M6 0V0.000893276C6 1.08575 5.449 2.08039 4.51622 2.69585L4.49501 3H2.35371C2.25756 3 2.16612 2.96293 2.09919 2.89772C2.03273 2.83207 1.99691 2.74364 2.00021 2.65297C2.0332 1.78383 2.06431 1.0795 2.09542 0.50067C2.10485 0.331844 2.24483 0.19607 2.42253 0.183564C2.44657 0.181778 3.89924 0.0812863 6 0Z" fill="#00CEC8"/>
<path d="M19.9998 2.641C20.0034 2.73479 19.9641 2.82628 19.8912 2.89419C19.8184 2.96165 19.7176 3 19.6121 3H18.2595C18.185 0.951794 18 0 18 0H18.0005C18.9485 0.0480518 19.5212 0.0854767 19.5367 0.0864007C19.7315 0.0993377 19.885 0.239797 19.8954 0.414446C19.9295 1.01463 19.9641 1.74326 19.9998 2.641Z" fill="#00A3A8"/>
<path d="M22 15.0032C22 15.0108 21.9995 15.0179 21.9991 15.0255C21.9398 15.9787 21.8604 16.7851 21.7738 17.4595C21.5143 19.4807 21.1923 20.3152 21.1744 20.3608C21.1245 20.4857 21.0094 20.5721 20.8763 20.5835C20.8613 20.5844 20.3967 20.6234 19.621 20.6771C17.8433 20.8001 14.4313 21 11.0503 21C6.19349 21 1.27368 20.5873 1.22431 20.5835C1.09125 20.5721 0.976064 20.4857 0.926697 20.3608C0.904129 20.3042 0.583476 19.4689 0.325825 17.46C0.147632 16.0746 0 14.1313 0 11.4998C0 8.88867 0.145751 6.95481 0.322064 5.57185C0.580185 3.53968 0.904129 2.69623 0.926697 2.63924C0.976064 2.51386 1.09125 2.4279 1.22431 2.4165C1.27368 2.41223 6.19349 2 11.0503 2C14.4313 2 17.8433 2.19994 19.621 2.32247C20.3967 2.37613 20.8613 2.41555 20.8763 2.4165C21.0094 2.4279 21.1245 2.51386 21.1744 2.63924C21.1923 2.68483 21.5181 3.52781 21.7781 5.5728C21.8627 6.23863 21.9408 7.03174 21.9986 7.96686C21.9991 7.97398 21.9995 7.98158 21.9995 7.98918L22 15.0032Z" fill="#F0AF09"/>
<path d="M22 15.4358C22 15.4432 21.9996 15.4502 21.9992 15.4577C21.9494 16.3924 21.8826 17.1832 21.8099 17.8446C21.5917 19.8268 21.3209 20.6451 21.3059 20.6898C21.264 20.8123 21.1672 20.8971 21.0553 20.9083C21.0427 20.9092 20.6522 20.9474 20 21C21.3123 8.88884 20 3 20 3C20.6522 3.05263 21.0427 3.09129 21.0553 3.09222C21.1672 3.10339 21.264 3.18769 21.3059 3.31065C21.3209 3.35536 21.5949 4.18205 21.8134 6.18754C21.8846 6.84051 21.9502 7.6183 21.9988 8.53535C21.9992 8.54233 21.9996 8.54978 21.9996 8.55724L22 15.4358Z" fill="#D77D41"/>
<path d="M23.7978 15.4831C23.7763 15.6468 23.6472 15.7759 23.483 15.7978C23.4324 15.8046 22.9632 15.8646 22.2198 15.9177C21.6083 15.9615 20.8113 16 19.908 16C18.8766 16 17.7069 15.9493 16.5181 15.7978C16.353 15.7769 16.2229 15.6468 16.202 15.4816C15.7567 11.9879 16.1839 8.6564 16.2024 8.51657C16.2239 8.35239 16.353 8.22328 16.5172 8.20184C16.6399 8.18576 19.2255 7.85446 22.2198 8.07614C22.6344 8.10635 23.0568 8.14776 23.4816 8.20184C23.6467 8.22279 23.7768 8.35287 23.7983 8.51803C24.2431 12.0113 23.8163 15.3428 23.7978 15.4831Z" fill="#FFF18D"/>
<path d="M20 10C18.8972 10 18 10.8972 18 12C18 13.1028 18.8972 14 20 14C21.1028 14 22 13.1028 22 12C22 10.8972 21.1028 10 20 10Z" fill="#FFD366"/>
<path d="M21 6C20.7382 5.97767 20.156 5.93035 19.3517 5.87346C17.3048 5.7283 13.8181 5.52306 10.4947 5.52306C5.88377 5.52306 0.95716 5.91865 0 5.99894C0.252635 3.72378 0.569694 2.77948 0.591783 2.71567C0.640101 2.5753 0.752843 2.47906 0.883072 2.4663C0.93139 2.46152 5.74664 2 10.5002 2C13.8093 2 17.1488 2.22385 18.8887 2.36103C19.648 2.42111 20.1027 2.46524 20.1174 2.4663C20.2476 2.47906 20.3604 2.5753 20.4091 2.71567C20.4266 2.76672 20.7455 3.71049 21 6Z" fill="#D77D41"/>
<path d="M21 18C20.7459 19.7127 20.4306 20.4197 20.4131 20.4584C20.3643 20.5642 20.2515 20.6374 20.1212 20.6471C20.1065 20.6479 19.6516 20.6809 18.8921 20.7264C17.1515 20.8306 13.8108 21 10.5005 21C5.7451 21 0.928055 20.6503 0.879718 20.6471C0.749441 20.6374 0.636656 20.5642 0.58832 20.4584C0.566224 20.4105 0.252269 19.7026 0 18.0004C0.956596 18.0612 5.88228 18.3606 10.4949 18.3606C13.751 18.3606 17.1639 18.2117 19.2263 18.1026C20.0936 18.0567 20.7219 18.0177 21 18Z" fill="#D77D41"/>
<path d="M11 11.1348C10.301 11.1348 9.73231 10.5675 9.73231 9.87019C9.73231 9.17287 10.301 8.60561 11 8.60561C11.5785 8.60561 12.0834 8.99517 12.2277 9.55299C12.2782 9.7484 12.4781 9.86581 12.6737 9.81536C12.8695 9.76496 12.9872 9.56579 12.9367 9.37047C12.74 8.61028 12.1194 8.04804 11.3661 7.90867V7.36522C11.3661 7.16347 11.2022 7 11 7C10.7978 7 10.6339 7.16347 10.6339 7.36522V7.90867C9.70531 8.08071 9 8.89481 9 9.87014C9 10.9702 9.89717 11.8652 11 11.8652C11.699 11.8652 12.2677 12.4325 12.2677 13.1298C12.2677 13.8271 11.699 14.3944 11 14.3944C10.4457 14.3944 9.96029 14.0409 9.79197 13.5147C9.7305 13.3226 9.52445 13.2166 9.33186 13.2778C9.13923 13.3392 9.03285 13.5446 9.09436 13.7368C9.32205 14.4487 9.91757 14.9603 10.6339 15.0917V15.6348C10.6339 15.8365 10.7978 16 11 16C11.2022 16 11.3661 15.8365 11.3661 15.6348V15.0913C12.2947 14.9193 13 14.1052 13 13.1299C13.0001 12.0298 12.1029 11.1348 11 11.1348Z" fill="white"/>
<path d="M20.3171 18.1129C21.14 18.0624 21.7362 18.0195 22 18C21.7589 19.8846 21.4597 20.6626 21.4431 20.7051C21.3968 20.8215 21.2898 20.9021 21.1662 20.9128C21.1522 20.9137 20.7207 20.95 20 21C20.1271 19.9926 20.2315 19.03 20.3171 18.1129Z" fill="#B5612A"/>
<path d="M20.4385 5.89568C20.2502 3.95777 20 3 20 3C20.7193 3.04953 21.15 3.08591 21.1639 3.08679C21.2873 3.09731 21.3941 3.17665 21.4403 3.29237C21.4568 3.33445 21.7589 4.11251 22 6C21.752 5.98159 21.2005 5.94258 20.4385 5.89568Z" fill="#B5612A"/>
<path d="M23.7728 15.5566C23.7487 15.7236 23.6037 15.8554 23.4192 15.8777C23.3623 15.8847 22.8352 15.9458 22 16C22.4773 12.1007 22.0071 8.06114 22 8C22.4658 8.03082 22.9403 8.07307 23.4176 8.12824C23.6031 8.14961 23.7493 8.28232 23.7734 8.45082C24.2731 12.0147 23.7936 15.4135 23.7728 15.5566Z" fill="#FFD366"/>
</svg>
