<svg width="24" height="24" viewBox="0 0 24 24" fill="none" xmlns="http://www.w3.org/2000/svg">
<path d="M12 0C5.3832 0 0 5.38327 0 12.0001C0 18.6169 5.3832 24 12 24C18.6168 24 24 18.6169 24 12.0001C24 5.38327 18.6168 0 12 0ZM12 21.8182C6.58618 21.8182 2.18182 17.4138 2.18182 12.0001C2.18182 6.58633 6.58618 2.18182 12 2.18182C17.4138 2.18182 21.8182 6.58633 21.8182 12.0001C21.8182 17.4138 17.4137 21.8182 12 21.8182Z" fill="#1792E7"/>
<path d="M11.9992 5.0918C11.1973 5.0918 10.5449 5.7446 10.5449 6.547C10.5449 7.34867 11.1973 8.00089 11.9992 8.00089C12.8011 8.00089 13.4534 7.34867 13.4534 6.547C13.4534 5.7446 12.8011 5.0918 11.9992 5.0918Z" fill="#1792E7"/>
<path d="M11.9991 10.1816C11.3966 10.1816 10.9082 10.6701 10.9082 11.2725V17.818C10.9082 18.4205 11.3966 18.9089 11.9991 18.9089C12.6016 18.9089 13.09 18.4205 13.09 17.818V11.2725C13.09 10.6701 12.6016 10.1816 11.9991 10.1816Z" fill="#1792E7"/>
</svg>
