<svg width="14" height="15" viewBox="0 0 14 15" fill="none" xmlns="http://www.w3.org/2000/svg">
<g clip-path="url(#clip0)">
<path d="M6.99996 0.5C4.2042 0.5 1.92969 2.77451 1.92969 5.57024C1.92969 9.03983 6.46708 14.1334 6.66027 14.3485C6.84172 14.5506 7.15852 14.5503 7.33965 14.3485C7.53283 14.1334 12.0702 9.03983 12.0702 5.57024C12.0702 2.77451 9.79569 0.5 6.99996 0.5ZM6.99996 8.12122C5.59334 8.12122 4.449 6.97686 4.449 5.57024C4.449 4.16362 5.59337 3.01929 6.99996 3.01929C8.40655 3.01929 9.55088 4.16365 9.55088 5.57027C9.55088 6.97689 8.40655 8.12122 6.99996 8.12122Z" fill="#0C1C33" fill-opacity="0.35"/>
</g>
<defs>
<clipPath id="clip0">
<rect width="14" height="14" fill="white" transform="translate(0 0.5)"/>
</clipPath>
</defs>
</svg>
