<svg width="50" height="50" viewBox="0 0 50 50" fill="none" xmlns="http://www.w3.org/2000/svg">
<g clip-path="url(#clip0)">
<path d="M50 25C50 31.6513 47.4178 37.9112 42.7296 42.627C38.044 47.3389 31.8066 49.9569 25.164 49.9989C25.1476 49.9989 25.1297 50 25.1133 49.9989C25.0763 50 25.0381 50 25 50C18.3231 50 12.0449 47.4003 7.32307 42.6777C2.60048 37.9562 0 31.6776 0 25C0 18.3224 2.60048 12.0449 7.32307 7.32231C12.0449 2.60048 18.3231 0 25 0C25.0381 0 25.0751 0 25.1133 0.00114441C25.1308 0.00114441 25.1484 0.00114441 25.1659 0.00190734C31.8077 0.0450135 38.0447 2.66228 42.7296 7.37419C47.4178 12.0899 50 18.3495 50 25Z" fill="#EA1C4B"/>
<path opacity="0.15" d="M50 24.9998C50 31.6511 47.4178 37.9111 42.7296 42.6268C38.044 47.3387 31.8065 49.9567 25.164 49.9987C25.1476 49.9987 25.1297 49.9998 25.1133 49.9987V0.000976562C25.1308 0.000976562 25.1484 0.000976562 25.1659 0.00173949C31.8077 0.0448456 38.0447 2.66211 42.7296 7.37402C47.4178 12.0898 50 18.3493 50 24.9998Z" fill="#0C1C33"/>
<path d="M27.5865 14.1773V26.03C27.5865 28.4664 26.7244 30.4484 25.0005 30.4484H24.9939C24.1382 30.4484 23.6399 29.9557 23.1715 29.155C22.6833 28.3203 22.4141 27.211 22.4141 26.03V14.1773C22.4141 11.768 22.4141 9.75879 24.9939 9.75879C24.9939 9.75879 22.4145 9.75879 25.0005 9.75879C27.5865 9.75879 27.5865 11.7413 27.5865 14.1773Z" fill="white"/>
<path d="M25.1235 30.0352C25.0881 30.0352 25.159 30.0359 25.1235 30.0352V30.0352Z" fill="black"/>
<path d="M28.4473 36.4831C28.4473 38.3851 26.9007 39.9317 24.9987 39.9317H24.99C23.0931 39.9274 21.5508 38.3824 21.5508 36.4831C21.5508 34.5845 23.0931 33.0395 24.99 33.0352H24.9987C26.9007 33.0352 28.4473 34.5818 28.4473 36.4831Z" fill="white"/>
<path d="M28.4483 36.4831C28.4483 38.3851 26.9057 39.9317 25.0087 39.9317H25V33.0352H25.0087C26.9057 33.0352 28.4483 34.5818 28.4483 36.4831Z" fill="#DDEBF0"/>
<path d="M27.5862 14.1773V26.03C27.5862 28.4664 26.7241 30.4484 25.0066 30.4484H25V9.75879H25.0066C27.5862 9.75879 27.5862 11.7413 27.5862 14.1773Z" fill="#DDEBF0"/>
</g>
<defs>
<clipPath id="clip0">
<rect width="50" height="50" fill="white"/>
</clipPath>
</defs>
</svg>
