<svg width="24" height="27" viewBox="0 0 24 27" fill="none" xmlns="http://www.w3.org/2000/svg">
<path d="M14.7302 5.49722H9.33732C6.85036 4.83929 4.754 -2.87226 12.0338 1.16237C13.0024 0.625665 13.8046 0.296722 14.4624 0.131737C18.7479 -0.945227 16.8859 4.92683 14.7302 5.49722Z" fill="#2E965D"/>
<path d="M13.7297 5.49722H12.0332C13.815 5.02486 15.3961 0.92178 13.4622 0.131553C17.7429 -0.945389 15.883 4.92682 13.7297 5.49722Z" fill="#00C364"/>
<path d="M11.523 26.5689C11.2189 26.5689 10.9212 26.5641 10.6305 26.5541C-7.19657 25.9488 0.434718 7.08164 11.4467 4.59127C11.4881 4.58176 11.53 4.57859 11.5724 4.5807C11.5961 4.58229 11.6197 4.58599 11.6434 4.59127C22.8337 7.12284 30.4919 26.5689 11.523 26.5689Z" fill="#F0AF09"/>
<path d="M11.895 26.5689C11.6007 26.5689 11.3126 26.5641 11.0312 26.5541C27.2971 25.9757 21.5723 8.67096 11.9428 4.58008C11.9657 4.58166 11.9886 4.58536 12.0115 4.59064C22.8417 7.12229 30.2533 26.5689 11.895 26.5689Z" fill="#FFD366"/>
<path d="M18.05 16.4915C18.05 20.0278 15.1259 22.9049 11.5318 22.9049C11.2576 22.9049 10.9877 22.8879 10.7221 22.8555C7.50866 22.462 5.01367 19.758 5.01367 16.4915C5.01367 13.225 7.50866 10.5211 10.7221 10.1275C10.9877 10.0951 11.2576 10.0781 11.5318 10.0781C15.1259 10.0781 18.05 12.9552 18.05 16.4915Z" fill="#1792E7"/>
<path d="M18.0508 16.4915C18.0508 20.0278 15.2497 22.9049 11.8069 22.9049C11.5442 22.9049 11.2857 22.8879 11.0312 22.8555C14.1095 22.462 16.4995 19.758 16.4995 16.4915C16.4995 13.225 14.1095 10.5211 11.0312 10.1275C11.2857 10.0951 11.5442 10.0781 11.8069 10.0781C15.2497 10.0781 18.0508 12.9552 18.0508 16.4915Z" fill="#00C364"/>
<path d="M13.036 12.3683C13.036 12.1153 12.8115 11.9102 12.5346 11.9102C12.2577 11.9102 12.0332 12.1153 12.0332 12.3683C12.0332 12.6213 12.2577 12.8264 12.5346 12.8264C12.8115 12.8264 13.036 12.6213 13.036 12.3683Z" fill="#00C364"/>
<path d="M12.0332 20.6143C12.0332 20.8673 12.2577 21.0724 12.5346 21.0724C12.8115 21.0724 13.036 20.8673 13.036 20.6143C13.036 20.3614 12.8115 20.1562 12.5346 20.1562C12.2577 20.1562 12.0332 20.3614 12.0332 20.6143Z" fill="#00C364"/>
<path d="M16.0438 16.9483C16.0438 16.6953 15.8193 16.4902 15.5424 16.4902C15.2655 16.4902 15.041 16.6953 15.041 16.9483C15.041 17.2013 15.2655 17.4064 15.5424 17.4064C15.8193 17.4065 16.0438 17.2014 16.0438 16.9483Z" fill="#00C364"/>
<path d="M7.01953 16.9483C7.01953 17.2013 7.24402 17.4064 7.52093 17.4064C7.79783 17.4064 8.02232 17.2013 8.02232 16.9483C8.02232 16.6953 7.79783 16.4902 7.52093 16.4902C7.24402 16.4902 7.01953 16.6953 7.01953 16.9483Z" fill="#00C364"/>
<path d="M11.5315 16.5304C11.1594 16.5304 10.8568 16.225 10.8568 15.8498C10.8568 15.4745 11.1595 15.1691 11.5315 15.1691C11.8394 15.1691 12.1081 15.3787 12.1848 15.6789C12.2421 15.9026 12.4683 16.0369 12.69 15.9796C12.9119 15.9218 13.0453 15.6937 12.9881 15.4699C12.8525 14.9397 12.449 14.5362 11.9463 14.3909V14.1606C11.9463 13.9295 11.7606 13.7422 11.5315 13.7422C11.3024 13.7422 11.1168 13.9295 11.1168 14.1606V14.3911C10.4884 14.5732 10.0273 15.1582 10.0273 15.8498C10.0273 16.6866 10.7021 17.3673 11.5315 17.3673C11.9036 17.3673 12.2062 17.6727 12.2062 18.048C12.2062 18.4233 11.9035 18.7287 11.5315 18.7287C11.2365 18.7287 10.9781 18.5384 10.8886 18.2553C10.819 18.0351 10.5857 17.9138 10.3674 17.9838C10.1492 18.0541 10.0287 18.2895 10.0983 18.5096C10.2546 19.0037 10.6411 19.3709 11.1168 19.5074V19.7372C11.1168 19.9683 11.3024 20.1556 11.5315 20.1556C11.7606 20.1556 11.9463 19.9683 11.9463 19.7372V19.5068C12.5746 19.3247 13.0357 18.7396 13.0357 18.048C13.0357 17.2112 12.361 16.5304 11.5315 16.5304Z" fill="white"/>
</svg>
