<svg width="24" height="18" viewBox="0 0 24 18" fill="none" xmlns="http://www.w3.org/2000/svg">
<path d="M24 10.442C24 14.0463 23.7652 17.3813 23.7628 17.4146C23.7496 17.5996 23.6059 17.7453 23.4278 17.7547C19.9841 17.9387 16.6211 18 13.6684 18C7.80629 18 3.55928 17.7586 3.49596 17.7547C3.3183 17.7444 3.1756 17.5986 3.16237 17.4146C3.16189 17.4083 3.14063 17.108 3.11086 16.5957C3.07873 16.033 3.0362 15.2136 3.00029 14.248C2.99509 14.115 3.05983 13.9894 3.16945 13.9197L20.2676 3.05419C20.3266 3.01641 20.3956 2.99776 20.4646 3.00021C21.2929 3.02965 22.0646 3.06155 22.7677 3.0954C22.995 3.1062 23.2151 3.11748 23.4278 3.12877C23.6059 3.13809 23.7496 3.2843 23.7628 3.46928C23.7652 3.50215 24 6.83762 24 10.442Z" fill="#2E965D"/>
<path d="M21 7.49986C21 11.0766 20.766 14.3865 20.7636 14.4191C20.7505 14.6027 20.6073 14.7478 20.4293 14.757C16.9983 14.9391 13.6473 15 10.7051 15C4.86379 15 0.631869 14.7604 0.568776 14.757C0.39174 14.7468 0.249546 14.6022 0.236362 14.4191C0.235892 14.4094 0.214704 14.1124 0.185512 13.6065C0.115827 12.4034 0 10.0176 0 7.49986C0 3.92312 0.234008 0.613691 0.236362 0.580582C0.249546 0.397996 0.39174 0.253388 0.568776 0.243163C0.662003 0.237807 9.7822 -0.278302 19.772 0.209567C19.9905 0.220279 20.2099 0.231478 20.4293 0.243163C20.6073 0.252414 20.7505 0.397022 20.7636 0.580582C20.766 0.613691 21 3.92312 21 7.49986Z" fill="#00C364"/>
<path d="M18.9398 4.17979C18.9332 3.98703 18.7821 3.83357 18.5964 3.83097C17.8619 3.8207 17.275 3.21537 17.2603 2.45292C17.2566 2.26045 17.1084 2.10468 16.923 2.09865C11.7803 1.93039 7.09891 2.00847 4.07725 2.10357C3.89198 2.10941 3.74353 2.26489 3.73954 2.45731C3.72374 3.2185 3.13689 3.82282 2.40349 3.83309C2.21779 3.8357 2.06665 3.98915 2.06006 4.18191C2.02025 5.34743 2 6.46386 2 7.50014C2 8.53853 2.0203 9.65636 2.06029 10.8227C2.06693 11.0154 2.21798 11.1688 2.40367 11.1714C3.13512 11.1818 3.72184 11.7846 3.7394 12.5437C3.74386 12.7358 3.89216 12.8907 4.07711 12.8965C5.81372 12.951 8.09678 13 10.6998 13C12.6295 13 14.7353 12.973 16.9229 12.9016C17.1082 12.8955 17.2565 12.7398 17.2602 12.5473C17.2749 11.7849 17.8618 11.1795 18.5963 11.1693C18.782 11.1666 18.9332 11.0132 18.9398 10.8204C18.9797 9.65409 19 8.53699 19 7.50004C19 6.46217 18.9797 5.34507 18.9398 4.17979Z" fill="#1792E7"/>
<path d="M10.5 7.14083C10.0449 7.14083 9.67463 6.7466 9.67463 6.26201C9.67463 5.77742 10.0449 5.38314 10.5 5.38314C10.8766 5.38314 11.2053 5.65386 11.2992 6.04148C11.3457 6.23352 11.5294 6.34903 11.7101 6.29951C11.8905 6.24994 11.999 6.05407 11.9525 5.86199C11.8105 5.27601 11.3738 4.83696 10.8373 4.70551V4.35917C10.8373 4.16081 10.6863 4 10.5 4C10.3136 4 10.1627 4.16081 10.1627 4.35917V4.70551C9.49747 4.86891 9 5.50473 9 6.26196C9 7.14265 9.67288 7.85912 10.5 7.85912C10.9551 7.85912 11.3254 8.25335 11.3254 8.73799C11.3254 9.22263 10.9551 9.61686 10.5 9.61686C10.1391 9.61686 9.82305 9.37119 9.71354 9.00555C9.65691 8.81658 9.46721 8.71223 9.28964 8.77257C9.11217 8.83286 9.01417 9.03495 9.07079 9.22393C9.23491 9.77154 9.65363 10.1711 10.1627 10.2949V10.6408C10.1627 10.8392 10.3136 11 10.5 11C10.6863 11 10.8373 10.8392 10.8373 10.6408V10.2945C11.5025 10.1311 12 9.49527 12 8.73804C12 7.85735 11.3271 7.14083 10.5 7.14083Z" fill="white"/>
<path d="M6.61647 4H5.38353C5.17167 4 5 4.22387 5 4.5C5 4.77613 5.17167 5 5.38353 5H6.61647C6.82833 5 7 4.77613 7 4.5C7 4.22387 6.82833 4 6.61647 4Z" fill="#0C1C33"/>
<path d="M16.6165 10H15.3835C15.1717 10 15 10.2239 15 10.5C15 10.7761 15.1717 11 15.3835 11H16.6165C16.8283 11 17 10.7761 17 10.5C17 10.2239 16.8283 10 16.6165 10Z" fill="#0C1C33"/>
<path d="M2.50047 13C2.77687 13 3.00093 12.7761 3.00093 12.5C3.00093 12.2239 2.77687 12 2.50047 12C2.22407 12 2 12.2239 2 12.5C2 12.7761 2.22407 13 2.50047 13Z" fill="#0C1C33"/>
<path d="M2.50047 3C2.77687 3 3.00093 2.77614 3.00093 2.5C3.00093 2.22386 2.77687 2 2.50047 2C2.22407 2 2 2.22386 2 2.5C2 2.77614 2.22407 3 2.50047 3Z" fill="#0C1C33"/>
<path d="M18.5005 13C18.7769 13 19.0009 12.7761 19.0009 12.5C19.0009 12.2239 18.7769 12 18.5005 12C18.2241 12 18 12.2239 18 12.5C18 12.7761 18.2241 13 18.5005 13Z" fill="#0C1C33"/>
<path d="M18.5005 3C18.7769 3 19.0009 2.77614 19.0009 2.5C19.0009 2.22386 18.7769 2 18.5005 2C18.2241 2 18 2.22386 18 2.5C18 2.77614 18.2241 3 18.5005 3Z" fill="#0C1C33"/>
<path d="M21 7.39359C21 11.021 20.7639 14.3778 20.7615 14.4109C20.7482 14.5971 20.6038 14.7442 20.4243 14.7536C16.9627 14.9383 13.5818 15 10.6133 15C4.71998 15 0.450336 14.7571 0.386681 14.7536C0.208067 14.7432 0.0646051 14.5966 0.0513041 14.4109C0.050829 14.401 0.0294523 14.0998 0 13.5868C1.21135 13.6361 10.5 14.1516 19.7972 13.6238C20.0278 9.04434 20.0481 4.52558 19.7611 0C19.9815 0.0108635 20.2029 0.0222209 20.4243 0.034072C20.6038 0.043454 20.7482 0.190111 20.7615 0.376272C20.7639 0.40985 21 3.76617 21 7.39359Z" fill="#3EB373"/>
<path d="M24 10.3936C24 14.021 23.7639 17.3773 23.7615 17.4109C23.7482 17.5971 23.6038 17.7437 23.4247 17.7531C19.9627 17.9383 16.582 18 13.6135 18C7.72035 18 3.4508 17.7571 3.38715 17.7531C3.20854 17.7427 3.06508 17.5961 3.05178 17.4109C3.0513 17.4045 3.02993 17.1023 3 16.5868H3.00048C4.21179 16.6361 13.5 16.9829 22.7972 16.6238C23.0255 12.5271 23.0527 7.19849 22.7611 3C22.9896 3.01086 23.211 3.02222 23.4247 3.03358C23.6038 3.04296 23.7482 3.19011 23.7615 3.37627C23.7639 3.40936 24 6.76617 24 10.3936Z" fill="#3EB273"/>
</svg>
