<svg width="24" height="24" viewBox="0 0 24 24" fill="none" xmlns="http://www.w3.org/2000/svg">
<path fill-rule="evenodd" clip-rule="evenodd" d="M22.1721 8.37857L13.6149 15.9303L12.9239 16.5427C12.396 17.0062 11.6062 17.0062 11.0784 16.5427L10.3873 15.9303L1.83008 8.37857C2.17411 8.04587 2.63425 7.86033 3.11284 7.86133H20.8894C21.368 7.86033 21.8281 8.04587 22.1721 8.37857Z" fill="#F3D55B"/>
<path fill-rule="evenodd" clip-rule="evenodd" d="M10.387 15.9306L1.82978 23.4824C1.4531 23.1214 1.24075 22.622 1.24219 22.1003V9.76098C1.24075 9.2393 1.4531 8.73982 1.82978 8.37891L10.387 15.9306Z" fill="#F0C419"/>
<path fill-rule="evenodd" clip-rule="evenodd" d="M22.7601 9.76098V22.1003C22.7615 22.622 22.5492 23.1214 22.1725 23.4824L13.6152 15.9306L22.1725 8.37891C22.5492 8.73982 22.7615 9.2393 22.7601 9.76098Z" fill="#F0C419"/>
<path fill-rule="evenodd" clip-rule="evenodd" d="M22.1721 23.4834C21.8281 23.8161 21.368 24.0016 20.8894 24.0006H3.11284C2.63425 24.0016 2.17411 23.8161 1.83008 23.4834L10.3873 15.9316L11.0784 16.5441C11.6062 17.0075 12.396 17.0075 12.9239 16.5441L13.6149 15.9316L22.1721 23.4834Z" fill="#F0AF09"/>
<path d="M12.0015 13.2414C15.6581 13.2414 18.6222 10.2772 18.6222 6.62069C18.6222 2.96418 15.6581 0 12.0015 0C8.34504 0 5.38086 2.96418 5.38086 6.62069C5.38086 10.2772 8.34504 13.2414 12.0015 13.2414Z" fill="#EA1C4B"/>
<path d="M12.0007 1.6543C9.25829 1.6543 7.03516 3.87743 7.03516 6.61981C7.03516 9.36219 9.25829 11.5853 12.0007 11.5853C13.064 11.5892 14.1 11.2485 14.9535 10.6142C15.137 10.478 15.1754 10.2188 15.0392 10.0353C14.903 9.85175 14.6438 9.8134 14.4603 9.94961C13.7493 10.4778 12.8863 10.7613 12.0007 10.7577C10.327 10.7577 8.8182 9.74957 8.17772 8.20333C7.53725 6.65709 7.89127 4.87729 9.07471 3.69386C10.2582 2.51042 12.038 2.15639 13.5842 2.79686C15.1304 3.43734 16.1386 4.94618 16.1386 6.61981V7.4474C16.1386 7.90446 15.7681 8.27499 15.311 8.27499C14.854 8.27499 14.4834 7.90446 14.4834 7.4474V4.55085C14.4834 4.32232 14.2982 4.13706 14.0696 4.13706C13.8411 4.13706 13.6558 4.32232 13.6558 4.55085V4.7743C12.9062 4.1001 11.8233 3.94619 10.9155 4.38483C10.0077 4.82347 9.45527 5.76754 9.51762 6.77383C9.57996 7.78013 10.2447 8.64879 11.1997 8.97202C12.1547 9.29525 13.2103 9.00884 13.871 8.24726C14.234 8.90842 14.9992 9.23911 15.7295 9.05039C16.4598 8.86168 16.969 8.20164 16.9662 7.4474V6.61981C16.9632 3.87866 14.7418 1.65726 12.0007 1.6543ZM12.0007 8.27499C11.0865 8.27499 10.3455 7.53394 10.3455 6.61981C10.3455 5.70569 11.0865 4.96464 12.0007 4.96464C12.9148 4.96464 13.6558 5.70569 13.6558 6.61981C13.6558 7.53394 12.9148 8.27499 12.0007 8.27499Z" fill="#ECF0F1"/>
</svg>
