<svg width="16" height="16" viewBox="0 0 16 16" fill="none" xmlns="http://www.w3.org/2000/svg">
<path d="M15.9996 7.99817C15.9996 10.2035 15.1023 12.2029 13.654 13.6518L7.99982 15.9969C7.72127 15.9969 7.44547 15.9826 7.17407 15.9545C5.29798 15.7613 3.61126 14.9168 2.34567 13.6518L0 7.99817C0 5.79288 0.89731 3.79347 2.34567 2.34512L7.71741 0.117255L7.99982 0C10.2051 0 12.2056 0.89676 13.654 2.34512L15.9996 7.99817Z" fill="#1792E7" fill-opacity="0.1"/>
<path d="M16.0002 7.99875H12.7369L11.3496 4.65063L12.7688 3.23145L13.6545 2.3457C15.1029 3.79406 16.0002 5.79346 16.0002 7.99875Z" fill="#EA1C4B"/>
<path d="M4.6506 11.3467L2.34567 13.6516C0.89731 12.2027 0 10.2033 0 7.99805H3.26334L4.6506 11.3467Z" fill="#EA1C4B"/>
<path d="M7.99986 0V3.26279L4.65063 4.65005L2.3457 2.34512C3.6113 1.07952 5.29802 0.235612 7.17411 0.0423876C7.44551 0.0143123 7.7213 0 7.99986 0Z" fill="#EA1C4B"/>
<path d="M13.6542 13.6526C12.2058 15.1004 10.2053 15.9977 8 15.9977V12.7349L11.3492 11.3477L12.7679 12.7663L13.6542 13.6526Z" fill="#EA1C4B"/>
<path d="M13.1483 7.99786C13.1483 10.8368 10.8384 13.1467 7.99896 13.1467C7.7182 13.1467 7.4424 13.1241 7.17321 13.08C4.72515 12.6842 2.84961 10.556 2.84961 7.99786C2.84961 5.4397 4.72515 3.31203 7.17321 2.91622C7.4424 2.87218 7.7182 2.84961 7.99896 2.84961C10.8384 2.84961 13.1483 5.15894 13.1483 7.99786Z" fill="#2E965D"/>
<path d="M13.1489 7.99786C13.1489 10.8368 10.839 13.1467 7.99957 13.1467C7.71882 13.1467 7.44302 13.1241 7.17383 13.08C9.62189 12.6842 11.4974 10.556 11.4974 7.99786C11.4974 5.4397 9.62189 3.31203 7.17383 2.91622C7.44302 2.87218 7.71882 2.84961 7.99957 2.84961C10.839 2.84961 13.1489 5.15894 13.1489 7.99786Z" fill="#4CB87C"/>
<path d="M10.495 7.99766C10.495 9.37335 9.37585 10.492 8.00016 10.492C7.72106 10.492 7.45297 10.4457 7.20194 10.3615C6.2171 10.0273 5.50586 9.09425 5.50586 7.99766C5.50586 6.90162 6.2171 5.96797 7.20194 5.63437C7.45297 5.55015 7.72106 5.50391 8.00016 5.50391C9.37585 5.50391 10.495 6.62252 10.495 7.99766Z" fill="white"/>
<path d="M10.4942 7.99766C10.4942 9.37335 9.37508 10.492 7.99939 10.492C7.72029 10.492 7.4522 10.4457 7.20117 10.3615C8.18656 10.0273 8.8978 9.09425 8.8978 7.99766C8.8978 6.90162 8.18656 5.96797 7.20117 5.63437C7.4522 5.55015 7.72029 5.50391 7.99939 5.50391C9.37508 5.50391 10.4942 6.62252 10.4942 7.99766Z" fill="#1792E7" fill-opacity="0.1"/>
<path d="M15.9994 7.99817C15.9994 10.2035 15.1021 12.2029 13.6537 13.6518L7.99957 15.9969C7.72102 15.9969 7.44522 15.9826 7.17383 15.9545C11.1985 15.54 14.3479 12.1302 14.3479 7.99817C14.3479 4.05496 11.4782 0.768493 7.71717 0.117255L7.99957 0C10.2049 0 12.2054 0.89676 13.6537 2.34512L15.9994 7.99817Z" fill="#EA1C4B"/>
<path d="M7.99957 0.171755C7.72873 0.114503 7.45348 0.0710135 7.17383 0.0423876C7.44522 0.0143123 7.72102 0 7.99957 0V0.171755Z" fill="#2E965D"/>
<path d="M12.7679 12.7656L13.6542 13.6519C12.2058 15.0997 10.2053 15.997 8 15.997V15.8253C9.93995 15.4168 11.6234 14.3032 12.7679 12.7656Z" fill="#EA1C4B"/>
<path d="M15.999 7.99875H14.3475C14.3475 6.21404 13.7596 4.56365 12.7676 3.23145L13.6533 2.3457C15.1017 3.79406 15.999 5.79346 15.999 7.99875Z" fill="white"/>
<path d="M15.999 7.99875H14.3475C14.3475 6.21404 13.7596 4.56365 12.7676 3.23145L13.6533 2.3457C15.1017 3.79406 15.999 5.79346 15.999 7.99875Z" fill="#EA1C4B"/>
</svg>
