<svg width="24" height="24" viewBox="0 0 24 24" fill="none" xmlns="http://www.w3.org/2000/svg">
<g clip-path="url(#clip0)">
<path d="M20.485 19.7344H14.86C12.9216 19.7344 11.3444 18.1572 11.3444 16.2188V13.913L7.60627 12.6667C6.96779 12.4545 6.96657 11.546 7.60627 11.3333L11.3444 10.087V7.78125C11.3444 5.84283 12.9216 4.26562 14.86 4.26562H20.485C22.4234 4.26562 24.0006 5.84283 24.0006 7.78125V16.2188C24.0006 18.1572 22.4234 19.7344 20.485 19.7344Z" fill="#00C364"/>
<path d="M20.4844 19.7344C22.4228 19.7344 24 18.1572 24 16.2188V7.78125C24 5.84283 22.4228 4.26562 20.4844 4.26562H17.6719V19.7344H20.4844Z" fill="#1792E7"/>
<path d="M19.7813 13.4062C19.7813 14.3203 19.1908 15.0938 18.375 15.389V16.2188C18.375 16.6125 18.0657 16.9219 17.6719 16.9219C17.2781 16.9219 16.9688 16.6125 16.9688 16.2188V15.389C16.6735 15.2906 16.4063 15.1218 16.1812 14.8969C15.9 14.6156 15.9 14.1797 16.1812 13.8984C16.4625 13.6312 16.8984 13.6312 17.1797 13.8984C17.3203 14.0391 17.5031 14.0953 17.6719 14.0812C18.0234 14.053 18.375 13.7858 18.375 13.4062C18.375 13.0125 18.0657 12.7031 17.6719 12.7031C16.5046 12.7031 15.5625 11.7609 15.5625 10.5938C15.5625 9.67964 16.153 8.90625 16.9688 8.61089V7.78125C16.9688 7.38745 17.2781 7.07812 17.6719 7.07812C18.0657 7.07812 18.375 7.38745 18.375 7.78125V8.61089C18.6703 8.70933 18.9375 8.87808 19.1626 9.10312C19.4438 9.38437 19.4438 9.82031 19.1626 10.1015C18.8813 10.3687 18.4454 10.3687 18.1641 10.1015C18.0375 9.96094 17.8547 9.90469 17.6719 9.9187C17.3204 9.94687 16.9688 10.2141 16.9688 10.5938C16.9688 10.9875 17.2781 11.2969 17.6719 11.2969C18.8392 11.2969 19.7813 12.239 19.7813 13.4062Z" fill="#FFDF40"/>
<path d="M19.7812 13.4062C19.7812 14.3203 19.1907 15.0938 18.375 15.389V16.2188C18.375 16.6125 18.0657 16.9219 17.6719 16.9219V14.0812C18.0234 14.053 18.375 13.7858 18.375 13.4062C18.375 13.0125 18.0657 12.7031 17.6719 12.7031V11.2969C18.8392 11.2969 19.7812 12.239 19.7812 13.4062Z" fill="#FFBE40"/>
<path d="M19.1645 10.1015C18.8832 10.3687 18.4473 10.3687 18.166 10.1015C18.0395 9.96094 17.8566 9.90469 17.6738 9.91871V7.07812C18.0676 7.07812 18.377 7.38745 18.377 7.78125V8.61089C18.6722 8.70933 18.9395 8.87808 19.1645 9.10313C19.4457 9.38438 19.4457 9.82032 19.1645 10.1015Z" fill="#FFBE40"/>
<path d="M4.26338 24C1.46461 24 0 17.5907 0 12C0 9.05222 0.378328 5.55497 1.06566 3.51562C1.84022 1.21538 2.94638 0 4.26338 0H6.76688C7.64953 0 8.32045 0.809016 8.14566 1.68159L7.30177 5.90105C7.17066 6.55608 6.59044 7.03125 5.92298 7.03125H4.07869L3.91734 7.12256C3.18877 7.53455 2.85713 10.3005 2.85713 12C2.85713 13.7784 3.2032 16.5005 3.97706 16.898L4.1295 16.9763L5.92575 16.9688C6.59044 16.9688 7.17066 17.4439 7.30177 18.099L8.14566 22.3177C8.32045 23.1915 7.64944 24 6.76688 24H4.26338Z" fill="#A2B1CC"/>
<path d="M4.26338 24H6.76688C7.64958 24 8.32041 23.1915 8.14566 22.3177L7.30177 18.099C7.17066 17.4439 6.59044 16.9688 5.92575 16.9688L4.1295 16.9763L3.97706 16.898C3.2032 16.5005 2.85713 13.7784 2.85713 12H0C0 17.5907 1.46461 24 4.26338 24Z" fill="#0C1C33" fill-opacity="0.24"/>
</g>
<defs>
<clipPath id="clip0">
<rect width="24" height="24" fill="white"/>
</clipPath>
</defs>
</svg>
