<svg width="58" height="58" viewBox="0 0 58 58" fill="none" xmlns="http://www.w3.org/2000/svg">
<g clip-path="url(#clip0)">
<path d="M16.2505 57.9961C25.2254 57.9961 32.501 50.7205 32.501 41.7456C32.501 32.7707 25.2254 25.4951 16.2505 25.4951C7.2756 25.4951 0 32.7707 0 41.7456C0 50.7205 7.2756 57.9961 16.2505 57.9961Z" fill="#EA1C4B"/>
<path d="M24.2765 27.6191C25.6242 29.9868 26.3945 32.7258 26.3945 35.6451C26.3945 44.62 19.119 51.8956 10.144 51.8956C7.22478 51.8956 4.48576 51.1253 2.11796 49.7776C2.41283 50.2957 2.73693 50.7949 3.08516 51.2753L0.103598 56.7815C-0.286541 57.502 0.499855 58.2885 1.22044 57.8984L6.72567 54.9173C9.40216 56.8572 12.6922 58.002 16.2506 58.002C25.2255 58.002 32.5011 50.7264 32.5011 41.7515C32.501 35.6959 29.1884 30.4146 24.2765 27.6191Z" fill="#EA1C4B"/>
<path d="M22.0723 47.5977L21.4541 46.9796C22.1703 45.8219 22.585 44.4589 22.585 43.0006C22.585 38.8179 19.1821 35.415 14.9995 35.415C10.8168 35.415 7.41406 38.8179 7.41406 43.0006C7.41406 47.1832 10.8169 50.5861 14.9996 50.5861C16.458 50.5861 17.8211 50.1715 18.9786 49.4551L19.5967 50.0733C19.9385 50.415 20.3865 50.5861 20.8345 50.5861C21.2824 50.5861 21.7305 50.4153 22.0722 50.0733C22.756 49.3896 22.756 48.2813 22.0723 47.5977ZM14.9996 47.0849C12.7474 47.0849 10.9151 45.2526 10.9151 43.0005C10.9151 40.7483 12.7474 38.916 14.9996 38.916C17.2517 38.916 19.084 40.7483 19.084 43.0005C19.084 43.4813 18.9999 43.9429 18.8465 44.3718L18.5713 44.0967C17.8878 43.413 16.7794 43.413 16.0958 44.0967C15.4121 44.7803 15.4121 45.8885 16.0958 46.5722L16.371 46.8474C15.9421 47.0009 15.4806 47.0849 14.9996 47.0849Z" fill="white"/>
<path d="M37.667 40.6699C48.8977 40.6699 58.0019 31.5657 58.0019 20.335C58.0019 9.10427 48.8977 0 37.667 0C26.4363 0 17.332 9.10427 17.332 20.335C17.332 31.5657 26.4363 40.6699 37.667 40.6699Z" fill="#2E955D"/>
<path d="M54.1397 32.254C56.5671 28.9047 57.9993 24.787 57.9993 20.3343C57.9993 13.1564 54.28 6.84739 48.6637 3.22852C50.707 6.39948 51.8929 10.1751 51.8929 14.2279C51.8929 25.4587 42.7886 34.5628 31.558 34.5628C27.5052 34.5628 23.7297 33.3768 20.5586 31.3337C24.1775 36.9499 30.4864 40.6693 37.6644 40.6693C42.1171 40.6693 46.2346 39.237 49.584 36.8097L56.4722 40.5397C57.3738 41.0278 58.358 40.0437 57.8697 39.1421L54.1397 32.254Z" fill="#00893A"/>
<path d="M46.9761 28.382L39.9741 9.71009C39.718 9.02678 39.0648 8.57422 38.3351 8.57422C37.6053 8.57422 36.9521 9.02678 36.696 9.71009L29.694 28.382C29.3545 29.2872 29.8132 30.2963 30.7184 30.6358C31.6235 30.9753 32.6325 30.5166 32.9721 29.6114L33.3121 28.705H43.3582L43.6981 29.6114C43.9616 30.3142 44.6287 30.7478 45.3374 30.7477C45.5417 30.7477 45.7494 30.7117 45.9519 30.6358C46.8569 30.2963 47.3157 29.2873 46.9761 28.382ZM34.625 25.204L38.3352 15.3101L42.0455 25.204H34.625Z" fill="white"/>
</g>
<defs>
<clipPath id="clip0">
<rect width="58" height="58" fill="white"/>
</clipPath>
</defs>
</svg>
