<svg width="24" height="24" viewBox="0 0 24 24" fill="none" xmlns="http://www.w3.org/2000/svg">
<path d="M23.9996 8.81918C24.0024 8.8773 23.9907 8.93543 23.9644 8.9884C21.4448 14.1235 18.387 17.9091 16.2659 20.1807C13.9623 22.6477 12.2776 23.8819 12.2068 23.9334C12.1454 23.978 12.0728 24.0005 12.0001 24.0005C11.9274 24.0005 11.8548 23.978 11.7934 23.9334C11.7226 23.8819 10.0379 22.6477 7.73434 20.1807C5.6131 17.9091 2.55531 14.1235 0.03568 8.9884C0.00942996 8.93496 -0.00275754 8.87637 0.000523707 8.81824C0.00146121 8.78449 0.00802371 8.75027 0.0192737 8.71793C1.0201 5.84217 2.86473 3.76515 2.94254 3.67843C2.99973 3.61468 3.07801 3.5739 3.16285 3.56406C3.20223 3.55937 7.15815 3.09766 12.0001 3.09766C16.842 3.09766 20.7979 3.55937 20.8373 3.56406C20.9221 3.5739 21.0004 3.61468 21.0576 3.67843C21.1396 3.77031 22.9814 5.84592 23.9808 8.71793C23.9921 8.75074 23.9987 8.78496 23.9996 8.81918Z" fill="#00A3A8"/>
<path d="M23.9995 8.81801C24.0023 8.87613 23.9906 8.93426 23.9643 8.98723C21.4447 14.1223 18.3869 17.9079 16.2658 20.1795C13.9622 22.6465 12.2775 23.8807 12.2067 23.9323C12.1453 23.9768 12.0727 23.9993 12 23.9993C18.8257 16.6672 22.3494 8.99051 22.3494 8.99051C22.1052 6.43537 21.0739 3.71992 21.058 3.67773C21.14 3.76961 22.9814 5.84475 23.9807 8.71676C23.992 8.74957 23.9985 8.78379 23.9995 8.81801Z" fill="#263448"/>
<path d="M16.5116 9.35938C16.5116 9.35938 15.3923 16.3065 12.0019 23.9985C8.61147 16.3065 7.49219 9.35938 7.49219 9.35938H16.5116Z" fill="#81EBEB"/>
<path d="M23.9991 8.81918L23.9803 8.83371C23.9803 8.83371 23.3822 8.90121 22.349 8.99168C20.2438 9.17636 16.3324 9.45714 11.9995 9.45714C5.54039 9.45714 0.01875 8.83371 0.01875 8.83371L0 8.81824C0.0009375 8.78449 0.0075 8.75027 0.01875 8.71793C1.01958 5.84217 2.8642 3.76515 2.94202 3.67843C2.9992 3.61468 3.07749 3.5739 3.16233 3.56406C3.2017 3.55937 7.15763 3.09766 11.9995 3.09766C16.8414 3.09766 20.7974 3.55937 20.8367 3.56406C20.9216 3.5739 20.9999 3.61468 21.0571 3.67843C21.0571 3.67843 21.0571 3.67843 21.0575 3.6789C21.1396 3.77078 22.9809 5.84592 23.9803 8.71793C23.9916 8.75074 23.9981 8.78496 23.9991 8.81918Z" fill="#00CEC8"/>
<path d="M12.0028 3.09766C12.0028 3.09766 9.09649 6.40513 7.49327 9.36152C5.72838 6.40513 2.94531 3.67843 2.94531 3.67843C3.0025 3.61468 3.08078 3.5739 3.16563 3.56406C3.205 3.55937 7.16092 3.09766 12.0028 3.09766Z" fill="#81EBEB"/>
<path d="M21.0576 3.67843C21.0576 3.67843 18.2745 6.40513 16.5096 9.36152C14.9064 6.40513 12 3.09766 12 3.09766C16.8419 3.09766 20.7978 3.55937 20.8372 3.56406C20.9221 3.5739 21.0004 3.61468 21.0576 3.67843Z" fill="#81EBEB"/>
<path d="M3.31778 16.9976C3.50626 16.9509 3.62115 16.7602 3.57446 16.5718C3.52778 16.3833 3.33714 16.2683 3.14865 16.3151L1.27881 16.7783C1.09032 16.825 0.975431 17.0157 1.02212 17.2041C1.06178 17.3642 1.20526 17.4712 1.36309 17.4712C1.39107 17.4712 1.41953 17.4678 1.44793 17.4608L3.31778 16.9976Z" fill="#FFF18D"/>
<path d="M4.57082 18.7812L1.54555 20.5203C1.37722 20.617 1.31919 20.8319 1.41599 21.0003C1.481 21.1134 1.59936 21.1767 1.7211 21.1767C1.78054 21.1767 1.84077 21.1616 1.89599 21.1298L4.92126 19.3908C5.08958 19.294 5.14761 19.0791 5.05082 18.9108C4.95407 18.7425 4.73915 18.6844 4.57082 18.7812Z" fill="#FFF18D"/>
<path d="M6.64074 21.0708C6.48779 20.9511 6.26687 20.9781 6.14719 21.131L5.30129 22.2118C5.18161 22.3647 5.20857 22.5857 5.36147 22.7053C5.42579 22.7557 5.50215 22.7801 5.5779 22.7801C5.68233 22.7801 5.78569 22.7337 5.85502 22.6451L6.70093 21.5644C6.8206 21.4115 6.79365 21.1905 6.64074 21.0708Z" fill="#FFF18D"/>
<path d="M22.722 16.6259L20.8522 16.1628C20.6639 16.116 20.4731 16.231 20.4264 16.4195C20.3797 16.608 20.4947 16.7986 20.6831 16.8453L22.553 17.3084C22.5814 17.3155 22.6098 17.3188 22.6378 17.3188C22.7956 17.3188 22.9391 17.2118 22.9788 17.0517C23.0254 16.8632 22.9105 16.6726 22.722 16.6259Z" fill="#FFF18D"/>
<path d="M22.4545 20.368L19.4292 18.6289C19.2609 18.5321 19.0459 18.5901 18.9492 18.7584C18.8524 18.9267 18.9104 19.1416 19.0788 19.2384L22.104 20.9775C22.1592 21.0092 22.2195 21.0244 22.2789 21.0244C22.4006 21.0244 22.519 20.9611 22.584 20.848C22.6808 20.6796 22.6228 20.4648 22.4545 20.368Z" fill="#FFF18D"/>
<path d="M17.855 20.9787C17.7353 20.8258 17.5144 20.7988 17.3615 20.9185C17.2086 21.0382 17.1816 21.2591 17.3013 21.412L18.1472 22.4928C18.2166 22.5814 18.3199 22.6277 18.4243 22.6277C18.5001 22.6277 18.5764 22.6033 18.6407 22.553C18.7936 22.4333 18.8206 22.2124 18.7009 22.0595L17.855 20.9787Z" fill="#FFF18D"/>
<path d="M12 0C11.8058 0 11.6484 0.157405 11.6484 0.35156V1.67178C11.6484 1.86594 11.8058 2.02334 12 2.02334C12.1942 2.02334 12.3516 1.86594 12.3516 1.67178V0.35156C12.3516 0.157405 12.1942 0 12 0Z" fill="#FFF18D"/>
<path d="M8.08459 1.0898C7.98634 0.922313 7.77095 0.866157 7.60347 0.964359C7.43598 1.06256 7.37983 1.27795 7.47803 1.44548L7.9038 2.17152C7.96928 2.28313 8.0867 2.34529 8.20741 2.34529C8.26783 2.34529 8.32905 2.32972 8.38492 2.29696C8.55241 2.19876 8.60856 1.98337 8.51036 1.81584L8.08459 1.0898Z" fill="#FFF18D"/>
<path d="M16.3986 0.964359C16.2311 0.866157 16.0157 0.922313 15.9175 1.0898L15.4917 1.81584C15.3935 1.98332 15.4497 2.19871 15.6171 2.29696C15.673 2.32972 15.7342 2.34529 15.7947 2.34529C15.9153 2.34529 16.0328 2.28313 16.0983 2.17152L16.524 1.44548C16.6222 1.27795 16.5661 1.06256 16.3986 0.964359Z" fill="#FFF18D"/>
<path d="M11.8633 18.7207C12.0574 18.7207 12.2148 18.5633 12.2148 18.3691C12.2148 18.175 12.0574 18.0176 11.8633 18.0176C11.6691 18.0176 11.5117 18.175 11.5117 18.3691C11.5117 18.5633 11.6691 18.7207 11.8633 18.7207Z" fill="#00CEC8"/>
<path d="M17.8047 5.0332C17.9989 5.0332 18.1563 4.8758 18.1563 4.68164C18.1563 4.48748 17.9989 4.33008 17.8047 4.33008C17.6105 4.33008 17.4531 4.48748 17.4531 4.68164C17.4531 4.8758 17.6105 5.0332 17.8047 5.0332Z" fill="#00CEC8"/>
<path d="M3.58203 11.0469C3.77619 11.0469 3.93359 10.8895 3.93359 10.6953C3.93359 10.5011 3.77619 10.3438 3.58203 10.3438C3.38787 10.3438 3.23047 10.5011 3.23047 10.6953C3.23047 10.8895 3.38787 11.0469 3.58203 11.0469Z" fill="#057F8E"/>
<path d="M6.17187 5.32812C6.36604 5.32812 6.52344 5.17072 6.52344 4.97656C6.52344 4.7824 6.36604 4.625 6.17187 4.625C5.97771 4.625 5.82031 4.7824 5.82031 4.97656C5.82031 5.17072 5.97771 5.32812 6.17187 5.32812Z" fill="#00CEC8"/>
<path d="M19.9492 11.2422C20.1434 11.2422 20.3008 11.0848 20.3008 10.8906C20.3008 10.6965 20.1434 10.5391 19.9492 10.5391C19.7551 10.5391 19.5977 10.6965 19.5977 10.8906C19.5977 11.0848 19.7551 11.2422 19.9492 11.2422Z" fill="#057F8E"/>
<path d="M24.0001 8.81801L23.9813 8.83254C23.9813 8.83254 23.3832 8.90004 22.35 8.99051C22.1058 6.43537 21.0745 3.71992 21.0586 3.67773C21.1406 3.76961 22.982 5.84475 23.9813 8.71676C23.9926 8.74957 23.9992 8.78379 24.0001 8.81801Z" fill="#263448"/>
</svg>
