<svg width="24" height="24" viewBox="0 0 24 24" fill="none" xmlns="http://www.w3.org/2000/svg">
<path d="M22.5901 15.9093C19.6931 21.9843 15.2354 23.2969 12.001 23.2969C8.35875 23.2969 4.9275 21.4781 2.81812 18.5109C0.694778 15.5156 0.188435 11.7188 1.41187 8.09058L1.63692 7.62656C3.3525 3.53433 7.51505 0.703125 12.001 0.703125C15.6432 0.703125 19.0745 2.52187 21.1838 5.48906C23.3072 8.48438 23.8135 12.2812 22.5901 15.9093Z" fill="#65B1FC"/>
<path d="M22.5891 15.9093C19.6921 21.9843 15.2344 23.2969 12 23.2969V0.703125C15.6422 0.703125 19.0735 2.52187 21.1829 5.48906C23.3062 8.48438 23.8125 12.2812 22.5891 15.9093Z" fill="#1689FC"/>
<path d="M21.7592 5.0812C19.5092 1.9312 15.867 0 11.9998 0C7.17637 0 2.76074 3.02813 0.946678 7.48589L0.707569 7.97812C-0.583603 11.9098 -0.0808688 15.6339 2.24043 18.9187C4.49038 22.0687 8.13262 24 11.9998 24C16.767 24 21.1264 21.0422 22.9967 16.6828L23.2076 16.2609C24.6132 12.2616 24.1208 8.41959 21.7592 5.0812ZM3.39355 18.1031C1.39673 15.2906 0.932616 11.7328 2.08574 8.31562L2.26855 7.93589C3.40762 5.20777 5.67168 3.09375 8.37163 2.0812C6.67012 4.30312 5.64351 8.62495 5.77012 10.0312C5.75605 10.0734 5.74194 10.1156 5.74194 10.1719C5.37632 14.8828 6.44507 19.4297 8.45601 21.975C6.44512 21.2437 4.65923 19.8891 3.39355 18.1031ZM11.2967 22.4671C10.8045 22.2984 10.3123 21.9281 9.84819 21.4359C7.87949 19.3125 6.79668 14.8266 7.14824 10.2843V10.1578C7.14824 10.1156 7.1623 10.0594 7.1623 10.0171C7.57007 5.6437 9.28574 2.19375 11.2967 1.53277V22.4671ZM12.7029 22.4531V1.53277C14.8685 2.24995 16.6827 6.23433 16.8935 10.9875C17.0904 15.375 15.9936 19.4953 14.0951 21.4922C13.6451 21.9562 13.1811 22.2984 12.7029 22.4531ZM21.9139 15.6844C20.3389 19.0031 18.117 21.0468 15.5436 21.9609C17.4279 19.5844 18.4967 15.3469 18.2998 10.9312C18.131 7.19058 17.0763 3.96567 15.5436 2.025C17.5545 2.7562 19.3404 4.11094 20.606 5.89683C22.6029 8.70933 23.067 12.2672 21.9139 15.6844Z" fill="#96D1D9"/>
<path d="M21.7594 5.0812C19.5094 1.9312 15.8672 0 12 0V24C16.7672 24 21.1266 21.0422 22.9969 16.6828L23.2078 16.2609C24.6134 12.2616 24.121 8.41959 21.7594 5.0812ZM12.7031 22.4531V1.53277C14.8687 2.24995 16.6829 6.23433 16.8937 10.9875C17.0906 15.375 15.9937 19.4953 14.0953 21.4922C13.6453 21.9562 13.1813 22.2984 12.7031 22.4531ZM21.9141 15.6844C20.3391 19.0031 18.1172 21.0468 15.5438 21.9609C17.4281 19.5844 18.4969 15.3469 18.3 10.9312C18.1312 7.19058 17.0765 3.96567 15.5438 2.025C17.5547 2.7562 19.3406 4.11094 20.6062 5.89683C22.6031 8.70933 23.0672 12.2672 21.9141 15.6844Z" fill="#96D1D9"/>
<path d="M21.8438 7.07812H2.15625C0.989016 7.07812 0 8.02027 0 9.1875V14.8125C0 15.9796 0.989016 16.9219 2.15625 16.9219H21.8438C23.011 16.9219 24 15.9796 24 14.8125V9.1875C24 8.02027 23.011 7.07812 21.8438 7.07812Z" fill="#1792E7"/>
<path d="M24 9.1875V14.8125C24 15.9796 23.011 16.9219 21.8438 16.9219H12V7.07812H21.8438C23.011 7.07812 24 8.02027 24 9.1875Z" fill="#0C1C33"/>
<path d="M15.4462 10.9039L14.04 13.7165C13.9134 13.9556 13.6743 14.1103 13.4071 14.1103C13.14 14.1103 12.9009 13.9556 12.7743 13.7165L12.0009 12.1696L11.2275 13.7165C10.9884 14.1946 10.2008 14.1946 9.96179 13.7165L8.55554 10.9039C8.38679 10.5664 8.52746 10.1446 8.87902 9.96181C9.21652 9.79306 9.63835 9.93364 9.82116 10.2852L10.5946 11.8321L11.3681 10.2852C11.4947 10.0462 11.7478 9.91957 12.0009 9.91957C12.254 9.91957 12.5071 10.0462 12.6337 10.2852L13.4071 11.8321L14.1806 10.2852C14.3634 9.93364 14.7853 9.79306 15.1227 9.96181C15.4743 10.1446 15.615 10.5664 15.4462 10.9039Z" fill="#E1F1FA"/>
<path d="M20.4375 14.1089C20.1711 14.1089 19.928 13.9585 19.8085 13.7202L19.0312 12.1657L18.254 13.7202C18.015 14.1967 17.235 14.1967 16.996 13.7202L15.6488 11.0251C15.5616 10.918 15.5053 10.7855 15.4957 10.6399C15.471 10.2526 15.7436 9.91964 16.1308 9.89424C16.4247 9.88739 16.7213 10.0261 16.8477 10.2788L17.625 11.8333L18.4023 10.2788C18.6412 9.80222 19.4212 9.80222 19.6602 10.2788L20.4375 11.8333L21.2148 10.2788C21.3892 9.93061 21.8115 9.79261 22.1582 9.96427C22.5057 10.138 22.6464 10.5603 22.4727 10.9077L21.0665 13.7202C20.947 13.9585 20.7039 14.1089 20.4375 14.1089Z" fill="#BFE1FF"/>
<path d="M7.82684 9.89147C7.55014 9.88871 7.27892 10.026 7.15255 10.2788L6.37526 11.8333L5.59798 10.2788C5.34472 9.77395 4.59055 9.77775 4.34005 10.2788L3.56276 11.8333L2.78548 10.2788C2.61106 9.93061 2.18811 9.79261 1.84203 9.96427C1.49459 10.138 1.35383 10.5603 1.52755 10.9077L2.9338 13.7202C3.05328 13.9585 3.29633 14.1089 3.56276 14.1089C3.8292 14.1089 4.07225 13.9585 4.19173 13.7202L4.96901 12.1657L5.7463 13.7202C5.86578 13.9585 6.10883 14.1089 6.37526 14.1089C6.6417 14.1089 6.88475 13.9585 7.00423 13.7202L8.32878 11.0711C8.42905 10.9571 8.49359 10.8068 8.50456 10.6399C8.52926 10.2526 8.21412 9.91688 7.82684 9.89147Z" fill="#E1F1FA"/>
<path d="M15.4453 10.9039L14.0391 13.7165C13.9125 13.9556 13.6734 14.1103 13.4063 14.1103C13.1391 14.1103 12.9 13.9556 12.7734 13.7165L12 12.1696V9.91957C12.2531 9.91957 12.5063 10.0462 12.6328 10.2852L13.4063 11.8321L14.1797 10.2852C14.3625 9.93364 14.7844 9.79306 15.1218 9.96181C15.4734 10.1446 15.6141 10.5664 15.4453 10.9039Z" fill="#BFE1FF"/>
</svg>
