<svg width="24" height="24" viewBox="0 0 24 24" fill="none" xmlns="http://www.w3.org/2000/svg">
<path d="M7.77828 5.05786L6.26586 3.54436C5.91502 3.19329 5.44833 3 4.95169 3C4.45505 3 3.98836 3.19334 3.63757 3.54436L2.54125 4.64157C1.81958 5.36367 1.81958 6.53868 2.54125 7.26082L4.05686 8.77751C4.20509 8.92584 4.3995 9 4.59402 9C4.78793 9 4.98194 8.92619 5.13007 8.77862C5.42673 8.48297 7.48097 6.4248 7.77722 6.12956C8.07383 5.83396 8.07433 5.35417 7.77828 5.05786Z" fill="#263448"/>
<path d="M11.5 0C11.2239 0 11 0.34441 11 0.769231V3.23077C11 3.65559 11.2239 4 11.5 4C11.7761 4 12 3.65559 12 3.23077V0.769231C12 0.34441 11.7761 0 11.5 0Z" fill="#263448"/>
<path d="M14.2788 0H10.7212C10.3229 0 10 0.223867 10 0.5C10 0.776133 10.3229 1 10.7212 1H14.2788C14.6771 1 15 0.776133 15 0.5C15 0.223867 14.6771 0 14.2788 0Z" fill="#EA1C4B"/>
<path d="M12 0H10.5769C10.2583 0 10 0.223867 10 0.5C10 0.776133 10.2583 1 10.5769 1H12V0Z" fill="#FC6249"/>
<path d="M19.7787 5.22235C17.701 3.14441 14.9385 2 12 2C9.0615 2 6.29896 3.14441 4.22129 5.22235C2.14401 7.2999 1 10.0621 1 13C1 15.9379 2.14401 18.7001 4.22129 20.7777C6.29896 22.8556 9.0615 24 12 24C14.9385 24 17.701 22.8556 19.7787 20.7777C21.856 18.7001 23 15.9379 23 13C23 10.0621 21.856 7.2999 19.7787 5.22235Z" fill="#EA1C4B"/>
<path d="M12 2C9.0615 2 6.29896 3.14441 4.22129 5.22235C2.14401 7.2999 1 10.0621 1 13C1 15.9379 2.14401 18.7001 4.22129 20.7777C6.29896 22.8556 9.0615 24 12 24V2Z" fill="#FF6285"/>
<path d="M12 5C7.5888 5 4 8.58877 4 13C4 17.4112 7.5888 21 12 21C16.4112 21 20 17.4112 20 13C20 8.58877 16.4112 5 12 5Z" fill="#96D1D9"/>
<path d="M12 5C7.5888 5 4 8.58877 4 13C4 17.4112 7.5888 21 12 21V5Z" fill="#F4F2E6"/>
<path d="M11.5 7C11.7761 7 12 6.64151 12 6.19932V5.03523C11.8352 5.01238 11.6685 5 11.5 5C11.3315 5 11.1648 5.01238 11 5.03523V6.19932C11 6.64151 11.2239 7 11.5 7Z" fill="#263448"/>
<path d="M11.5 19C11.2239 19 11 19.3585 11 19.8007V20.9648C11.1648 20.9876 11.3315 21 11.5 21C11.6685 21 11.8352 20.9876 12 20.9648V19.8007C12 19.3585 11.7761 19 11.5 19Z" fill="#263448"/>
<path d="M19.9647 12H18.8078C18.3617 12 18 12.2239 18 12.5C18 12.7761 18.3617 13 18.8078 13H19.9647C19.9876 12.8352 20 12.6685 20 12.5C20 12.3315 19.9876 12.1648 19.9647 12Z" fill="#263448"/>
<path d="M6 12.5C6 12.2239 5.63831 12 5.19218 12H4.03533C4.01239 12.1648 4 12.3315 4 12.5C4 12.6685 4.01239 12.8352 4.03533 13H5.19218C5.63831 13 6 12.7761 6 12.5Z" fill="#263448"/>
<path d="M13.3199 12.5804H12.3603V9.70978C12.3603 9.31779 12.0558 9 11.6801 9C11.3045 9 11 9.31779 11 9.70978V13.2902C11 13.6822 11.3045 14 11.6801 14H13.3199C13.6955 14 14 13.6822 14 13.2902C14 12.8982 13.6955 12.5804 13.3199 12.5804Z" fill="#263448"/>
</svg>
