<svg width="24" height="24" viewBox="0 0 24 24" fill="none" xmlns="http://www.w3.org/2000/svg">
<path d="M10.8244 23.4538C10.8167 23.6287 10.684 23.771 10.5135 23.7864C10.4894 23.7882 8.0914 23.9999 5.49974 23.9999C2.90854 23.9999 0.510556 23.7882 0.486465 23.7864C0.316012 23.771 0.18324 23.6287 0.175513 23.4538C0.162331 23.1495 0.150513 22.8458 0.13915 22.543C-0.192256 13.6596 0.171877 5.62752 0.175513 5.54472C0.183695 5.37028 0.316421 5.22886 0.486465 5.21351C0.510556 5.21165 2.90854 5 5.49974 5C7.03627 5 8.50462 5.07443 9.45062 5.1349C10.1007 5.17723 10.5039 5.21258 10.5135 5.21351C10.6835 5.22886 10.8162 5.37028 10.8244 5.54472C10.8281 5.63031 11.2176 14.2164 10.8244 23.4538Z" fill="#FF6285"/>
<path d="M10.8222 23.45C10.8143 23.6261 10.6799 23.7695 10.5072 23.785C10.4828 23.7868 8.05414 24 5.42927 24C2.80487 24 0.376164 23.7868 0.351765 23.785C0.179128 23.7695 0.0446554 23.6261 0.0368292 23.45C0.0234786 23.1436 0.0115091 22.8376 0 22.5327C4.83991 22.6788 8.40493 22.5664 9.46759 22.5242C9.69828 13.2821 9.43076 5.00047 9.43076 5.00047V5C10.0892 5.04263 10.4976 5.07824 10.5072 5.07918C10.6794 5.09464 10.8139 5.23706 10.8222 5.41275C10.8259 5.49895 11.2204 14.1465 10.8222 23.45Z" fill="#EA1C4B"/>
<path d="M9.63349 14H2.36651C2.16408 14 2 14.2239 2 14.5C2 14.7761 2.16408 15 2.36651 15H9.63349C9.83592 15 10 14.7761 10 14.5C10 14.2239 9.83592 14 9.63349 14Z" fill="#EA1C4B"/>
<path d="M23.8244 18.4538C23.8167 18.6287 23.684 18.771 23.5135 18.7864C23.4894 18.7882 21.0914 18.9999 18.4997 18.9999C15.9085 18.9999 13.5106 18.7882 13.4865 18.7864C13.316 18.771 13.1832 18.6287 13.1755 18.4538C13.1623 18.1495 13.1505 17.8458 13.1391 17.543C12.8077 8.65961 13.1719 0.627518 13.1755 0.544717C13.1837 0.370277 13.3164 0.228865 13.4865 0.213514C13.5106 0.211654 15.9086 0 18.4997 0C20.0363 0 21.5046 0.0744276 22.4506 0.1349C23.1007 0.177231 23.5039 0.212584 23.5135 0.213514C23.6835 0.228865 23.8162 0.370277 23.8244 0.544717C23.8281 0.630309 24.2176 9.21642 23.8244 18.4538Z" fill="#FFF18D"/>
<path d="M23.8222 18.45C23.8143 18.6261 23.6799 18.7695 23.5072 18.785C23.4828 18.7868 21.0541 19 18.4293 19C15.8049 19 13.3762 18.7868 13.3518 18.785C13.1791 18.7695 13.0447 18.6261 13.0368 18.45C13.0235 18.1436 13.0115 17.8376 13 17.5327C17.8399 17.6788 21.405 17.5664 22.4676 17.5242C22.6983 8.28213 22.4308 0.000468501 22.4308 0.000468501V0C23.0892 0.0426337 23.4976 0.0782398 23.5072 0.0791768C23.6794 0.0946374 23.8139 0.237062 23.8222 0.41275C23.8259 0.498954 24.2204 9.14652 23.8222 18.45Z" fill="#F0AF09"/>
<path d="M22.6334 9H15.3665C15.1641 9 15 9.22387 15 9.5C15 9.77613 15.1641 10 15.3665 10H22.6335C22.8359 10 23 9.77613 23 9.5C23 9.22387 22.8359 9 22.6334 9Z" fill="#F0AF09"/>
<path d="M15.5 17C15.7761 17 16 16.7761 16 16.5C16 16.2239 15.7761 16 15.5 16C15.2239 16 15 16.2239 15 16.5C15 16.7761 15.2239 17 15.5 17Z" fill="white"/>
<path d="M20.5 13C20.7761 13 21 12.7761 21 12.5C21 12.2239 20.7761 12 20.5 12C20.2239 12 20 12.2239 20 12.5C20 12.7761 20.2239 13 20.5 13Z" fill="white"/>
<path d="M15.5 7C15.7761 7 16 6.77614 16 6.5C16 6.22386 15.7761 6 15.5 6C15.2239 6 15 6.22386 15 6.5C15 6.77614 15.2239 7 15.5 7Z" fill="white"/>
<path d="M20.5 7C20.7761 7 21 6.77614 21 6.5C21 6.22386 20.7761 6 20.5 6C20.2239 6 20 6.22386 20 6.5C20 6.77614 20.2239 7 20.5 7Z" fill="white"/>
<path d="M20.5 3C20.7761 3 21 2.77614 21 2.5C21 2.22386 20.7761 2 20.5 2C20.2239 2 20 2.22386 20 2.5C20 2.77614 20.2239 3 20.5 3Z" fill="white"/>
<path d="M15.5 3C15.7761 3 16 2.77614 16 2.5C16 2.22386 15.7761 2 15.5 2C15.2239 2 15 2.22386 15 2.5C15 2.77614 15.2239 3 15.5 3Z" fill="white"/>
<path d="M5.5 20C5.77614 20 6 19.7761 6 19.5C6 19.2239 5.77614 19 5.5 19C5.22386 19 5 19.2239 5 19.5C5 19.7761 5.22386 20 5.5 20Z" fill="#ED2061"/>
<path d="M5.5 11C5.77614 11 6 10.7761 6 10.5C6 10.2239 5.77614 10 5.5 10C5.22386 10 5 10.2239 5 10.5C5 10.7761 5.22386 11 5.5 11Z" fill="#ED2061"/>
<path d="M3.5 8C3.77614 8 4 7.77614 4 7.5C4 7.22386 3.77614 7 3.5 7C3.22386 7 3 7.22386 3 7.5C3 7.77614 3.22386 8 3.5 8Z" fill="white"/>
<path d="M8.5 12C8.77614 12 9 11.7761 9 11.5C9 11.2239 8.77614 11 8.5 11C8.22386 11 8 11.2239 8 11.5C8 11.7761 8.22386 12 8.5 12Z" fill="white"/>
<path d="M3.5 17C3.77614 17 4 16.7761 4 16.5C4 16.2239 3.77614 16 3.5 16C3.22386 16 3 16.2239 3 16.5C3 16.7761 3.22386 17 3.5 17Z" fill="white"/>
<path d="M8.5 17C8.77614 17 9 16.7761 9 16.5C9 16.2239 8.77614 16 8.5 16C8.22386 16 8 16.2239 8 16.5C8 16.7761 8.22386 17 8.5 17Z" fill="white"/>
<path d="M8.5 21C8.77614 21 9 20.7761 9 20.5C9 20.2239 8.77614 20 8.5 20C8.22386 20 8 20.2239 8 20.5C8 20.7761 8.22386 21 8.5 21Z" fill="white"/>
<path d="M3.5 21C3.77614 21 4 20.7761 4 20.5C4 20.2239 3.77614 20 3.5 20C3.22386 20 3 20.2239 3 20.5C3 20.7761 3.22386 21 3.5 21Z" fill="white"/>
<path d="M18.5 15C18.7761 15 19 14.7761 19 14.5C19 14.2239 18.7761 14 18.5 14C18.2239 14 18 14.2239 18 14.5C18 14.7761 18.2239 15 18.5 15Z" fill="#F0AF09"/>
<path d="M18.5 6C18.7761 6 19 5.77614 19 5.5C19 5.22386 18.7761 5 18.5 5C18.2239 5 18 5.22386 18 5.5C18 5.77614 18.2239 6 18.5 6Z" fill="#F0AF09"/>
</svg>
