<svg width="22" height="24" viewBox="0 0 22 24" fill="none" xmlns="http://www.w3.org/2000/svg">
<path d="M10.5005 24C10.4439 24 10.3873 23.9931 10.332 23.9792C7.0401 23.1527 4.34703 21.222 2.54403 18.3958C0.879699 15.787 0 12.4837 0 8.84311V3.52734C0 3.13903 0.312199 2.82422 0.697288 2.82422C1.85716 2.82422 2.80077 1.8727 2.80077 0.703125C2.80077 0.314812 3.11297 0 3.49806 0H17.5019C17.887 0 18.1992 0.314812 18.1992 0.703125C18.1992 1.8727 19.1428 2.82422 20.3027 2.82422C20.6878 2.82422 21 3.13903 21 3.52734V8.84311C21 12.4838 20.1205 15.7871 18.4565 18.3957C16.6537 21.222 13.9608 23.1527 10.669 23.9791C10.6136 23.9931 10.5571 24 10.5005 24Z" fill="#00C364"/>
<path d="M21.2696 2.82422C20.0545 2.82422 19.0659 1.8727 19.0659 0.703125C19.0659 0.314812 18.7388 0 18.3354 0H11V24C11.0002 24 11.0003 24 11.0005 24C11.0598 24 11.1191 23.9931 11.177 23.9792C14.6256 23.1527 17.4467 21.222 19.3354 18.3958C21.0786 15.7871 22 12.4838 22 8.84316V3.52734C22 3.13903 21.673 2.82422 21.2696 2.82422Z" fill="#1792E7"/>
<path d="M10.5005 21C10.4309 21 10.3613 20.989 10.2942 20.9672C8.07057 20.2421 6.30384 18.8592 5.04312 16.857C3.70648 14.7343 3 11.9977 3 8.9429V5.73393C3 5.48657 3.12909 5.25791 3.33875 5.13407C4.06422 4.70554 4.66942 4.08724 5.08888 3.34608C5.2101 3.13193 5.43387 3 5.67604 3H15.324C15.5661 3 15.7899 3.13188 15.9111 3.34608C16.3306 4.08724 16.9358 4.70554 17.6613 5.13411C17.8709 5.25796 18 5.48657 18 5.73393V8.9429C18 11.9979 17.2936 14.7346 15.9572 16.8572C14.6967 18.8593 12.9302 20.2421 10.7067 20.9672C10.6396 20.9891 10.57 21 10.5005 21Z" fill="#EEFFCC"/>
<path d="M18.6387 5.13407C17.8648 4.70549 17.2193 4.0872 16.7718 3.34603C16.6426 3.13188 16.4039 3 16.1456 3H11V21H11.0005C11.0748 21 11.149 20.989 11.2205 20.9672C13.5922 20.2421 15.4765 18.8593 16.8211 16.8572C18.2465 14.7346 19 11.9979 19 8.94287V5.73389C19 5.48653 18.8623 5.25792 18.6387 5.13407Z" fill="#D5FFAB"/>
<path d="M10 14C7.7944 14 6 12.2056 6 10C6 7.7944 7.7944 6 10 6C12.2056 6 14 7.7944 14 10C14 12.2056 12.2056 14 10 14Z" fill="white"/>
<path d="M11 6L11 14C13.2056 14 15 12.2056 15 10C15 7.7944 13.2056 6 11 6Z" fill="#EEFFCC"/>
<path d="M10.5 16C8.0187 16 6 13.757 6 11C6 8.243 8.0187 6 10.5 6C12.9813 6 15 8.243 15 11C15 13.757 12.9813 16 10.5 16ZM10.5 7.47601C8.75119 7.47601 7.32841 9.05688 7.32841 11C7.32841 12.9431 8.75119 14.524 10.5 14.524C12.2488 14.524 13.6716 12.9431 13.6716 11C13.6716 9.05688 12.2488 7.47601 10.5 7.47601Z" fill="#00C364"/>
<path d="M9.32442 12C9.29104 12 9.25745 11.9973 9.22403 11.9917C9.04837 11.9625 8.89242 11.8582 8.79393 11.7039L8.10664 10.6276C7.91182 10.3226 7.99141 9.91081 8.28437 9.70796C8.57733 9.5051 8.97273 9.58793 9.16758 9.89303L9.47243 10.3704L10.9686 9.14242C11.2449 8.91559 11.6455 8.96504 11.8632 9.25276C12.081 9.54048 12.0336 9.9576 11.7573 10.1844L9.71872 11.8576C9.60566 11.9505 9.46653 12 9.32442 12Z" fill="#00C364"/>
<path d="M11.9686 9.16266L11 10.0706V12L12.7573 10.3527C13.0336 10.0936 13.081 9.61724 12.8632 9.28863C12.6454 8.96007 12.2449 8.9036 11.9686 9.16266Z" fill="#2E965D"/>
<path d="M11 6L11 7.47601C12.9431 7.47601 14.524 9.05688 14.524 11C14.524 12.9431 12.9432 14.524 11 14.524C11 14.524 11 14.524 11 14.524V16C13.757 16 16 13.757 16 11C16 8.243 13.757 6 11 6Z" fill="#2E965D"/>
</svg>
