<svg width="24" height="24" viewBox="0 0 24 24" fill="none" xmlns="http://www.w3.org/2000/svg">
<path d="M16.7984 0H7.19843C6.75662 0 6.39844 0.314807 6.39844 0.703113V5.39054H17.5984V0.703113C17.5984 0.314807 17.2402 0 16.7984 0Z" fill="#AED0FF"/>
<path d="M16.798 0H11.998V5.39054H17.598V0.703113C17.598 0.314807 17.2398 0 16.798 0Z" fill="#1792E7"/>
<path d="M6.39844 5.39062V9.08295C6.39844 11.8012 8.90562 14.0047 11.9984 14.0047C15.0912 14.0047 17.5984 11.8012 17.5984 9.08295V5.39062H6.39844Z" fill="#FFE4C2"/>
<path d="M11.998 14.0047C15.0908 14.0047 17.598 11.8012 17.598 9.08295V5.39062H11.998V14.0047Z" fill="#F2D1A5"/>
<path d="M16.1072 17.1482C15.8309 17.1482 15.5535 17.0982 15.2915 16.9971L13.1614 16.1752C13.0064 16.1154 12.9062 15.9807 12.9062 15.8319V13.5819C12.9062 13.4331 13.0064 13.2984 13.1614 13.2386L15.2915 12.4166C15.9204 12.1739 16.6393 12.2261 17.2144 12.5563C17.7895 12.8864 18.1328 13.4439 18.1328 14.0476V15.3662C18.1328 15.9699 17.7895 16.5274 17.2143 16.8575C16.8788 17.0502 16.4942 17.1482 16.1072 17.1482Z" fill="#EA1C4B"/>
<path d="M7.89082 17.1481C7.50373 17.1481 7.11925 17.0502 6.78363 16.8575C6.20859 16.5274 5.86523 15.9699 5.86523 15.3662V14.0476C5.86523 13.4439 6.20859 12.8863 6.78368 12.5563C7.35877 12.2261 8.07764 12.174 8.7066 12.4166L10.8367 13.2386C10.9918 13.2984 11.0919 13.4331 11.0919 13.5819V15.8319C11.0919 15.9807 10.9918 16.1154 10.8367 16.1752L8.7066 16.9972C8.44463 17.0982 8.16708 17.1481 7.89082 17.1481Z" fill="#EA1C4B"/>
<path d="M11.9996 11.1905C11.2153 11.1905 10.431 10.9281 9.83393 10.4034C9.5215 10.1288 9.5215 9.68362 9.83393 9.40903C10.1463 9.13449 10.6529 9.13449 10.9653 9.40903C11.5356 9.91026 12.4636 9.91026 13.0339 9.40903C13.3463 9.13449 13.8528 9.13449 14.1653 9.40903C14.4777 9.68357 14.4777 10.1288 14.1653 10.4034C13.5681 10.9282 12.7839 11.1905 11.9996 11.1905Z" fill="#F2D1A5"/>
<path d="M14.1637 10.4034C14.4762 10.1288 14.4762 9.68362 14.1637 9.40903C13.8514 9.13449 13.3448 9.13449 13.0324 9.40903C12.7472 9.65967 12.3727 9.78496 11.998 9.78496V11.1905C12.7824 11.1905 13.5667 10.9282 14.1637 10.4034Z" fill="#F2BB88"/>
<path d="M19.7314 6.09373H4.26484C3.82303 6.09373 3.46484 5.77892 3.46484 5.39061C3.46484 5.00231 3.82303 4.6875 4.26484 4.6875H19.7314C20.1732 4.6875 20.5314 5.00231 20.5314 5.39061C20.5314 5.77892 20.1732 6.09373 19.7314 6.09373Z" fill="#1792E7"/>
<path d="M19.7313 4.6875H11.998V6.09373H19.7313C20.1731 6.09373 20.5313 5.77892 20.5313 5.39061C20.5313 5.00231 20.1731 4.6875 19.7313 4.6875Z" fill="#AED0FF"/>
<path d="M11.9986 16.582C13.1768 16.582 14.1319 15.7425 14.1319 14.707C14.1319 13.6715 13.1768 12.832 11.9986 12.832C10.8204 12.832 9.86523 13.6715 9.86523 14.707C9.86523 15.7425 10.8204 16.582 11.9986 16.582Z" fill="#FF6C6C"/>
<path d="M14.1314 14.707C14.1314 13.6731 13.1744 12.832 11.998 12.832V16.582C13.1744 16.582 14.1314 15.7409 14.1314 14.707Z" fill="#D21540"/>
<path d="M11.2237 23.4673C10.9671 22.5651 10.1657 21.8607 9.13916 21.6352C8.33122 21.4577 8.33122 20.4485 9.13916 20.2709C10.1656 20.0454 10.9671 19.341 11.2237 18.4388C11.4257 17.7287 12.574 17.7287 12.7759 18.4388C13.0326 19.341 13.834 20.0454 14.8605 20.2709C15.6684 20.4485 15.6684 21.4577 14.8605 21.6352C13.8341 21.8607 13.0326 22.5651 12.7759 23.4673C12.574 24.1774 11.4257 24.1774 11.2237 23.4673Z" fill="#FFE89C"/>
<path d="M12.7741 23.4673C13.0308 22.5651 13.8322 21.8607 14.8587 21.6352C15.6667 21.4577 15.6667 20.4485 14.8587 20.271C13.8323 20.0454 13.0308 19.341 12.7741 18.4388C12.6732 18.0838 12.3356 17.9062 11.998 17.9062V23.9999C12.3356 23.9999 12.6732 23.8224 12.7741 23.4673Z" fill="#FFCD00"/>
<path d="M19.7569 23.4673C19.5003 22.5651 18.6988 21.8607 17.6724 21.6352C16.8644 21.4577 16.8644 20.4485 17.6724 20.2709C18.6988 20.0454 19.5003 19.341 19.7569 18.4388C19.9589 17.7287 21.1072 17.7287 21.3091 18.4388C21.5658 19.341 22.3672 20.0454 23.3937 20.2709C24.2016 20.4485 24.2016 21.4577 23.3937 21.6352C22.3673 21.8607 21.5658 22.5651 21.3091 23.4673C21.1072 24.1774 19.9589 24.1774 19.7569 23.4673Z" fill="#FFE89C"/>
<path d="M21.3093 23.4673C21.5659 22.5651 22.3674 21.8607 23.3939 21.6352C24.2018 21.4577 24.2018 20.4485 23.3939 20.271C22.3674 20.0454 21.5659 19.341 21.3093 18.4388C21.2083 18.0838 20.8707 17.9062 20.5332 17.9062V23.9999C20.8707 23.9999 21.2083 23.8224 21.3093 23.4673Z" fill="#FFCD00"/>
<path d="M2.69053 23.4673C2.43389 22.5651 1.6324 21.8607 0.605955 21.6352C-0.201985 21.4577 -0.201985 20.4485 0.605955 20.2709C1.6324 20.0454 2.43389 19.341 2.69053 18.4388C2.8925 17.7287 4.04076 17.7287 4.24273 18.4388C4.49937 19.341 5.3008 20.0454 6.3273 20.2709C7.13524 20.4485 7.13524 21.4577 6.3273 21.6352C5.30085 21.8607 4.49937 22.5651 4.24273 23.4673C4.04076 24.1774 2.8925 24.1774 2.69053 23.4673Z" fill="#FFE89C"/>
<path d="M4.24094 23.4673C4.49758 22.5651 5.29902 21.8607 6.32552 21.6352C7.13346 21.4577 7.13346 20.4485 6.32552 20.271C5.29907 20.0454 4.49758 19.341 4.24094 18.4388C4.13999 18.0838 3.80239 17.9062 3.46484 17.9062V23.9999C3.80239 23.9999 4.13999 23.8224 4.24094 23.4673Z" fill="#FFCD00"/>
</svg>
